{"glyphs":{"0":{"ha":888,"x_min":78,"x_max":811,"o":"m 78 319 l 78 653 q 178 898 78 804 q 444 991 278 991 q 711 898 610 991 q 811 653 811 804 l 811 319 q 711 75 811 169 q 444 -20 610 -20 q 178 75 278 -20 q 78 319 78 169 m 269 317 q 315 183 269 229 q 444 138 361 138 q 573 183 527 138 q 619 317 619 229 l 619 656 q 573 789 619 743 q 444 835 527 835 q 315 789 361 835 q 269 656 269 743 l 269 317 z "},"1":{"ha":547,"x_min":35,"x_max":433,"o":"m 35 701 l 35 871 l 275 972 l 433 972 l 433 0 l 241 0 l 241 778 l 35 701 z "},"2":{"ha":836,"x_min":72,"x_max":750,"o":"m 72 0 l 72 146 l 468 534 q 535 618 513 579 q 558 704 558 657 q 519 800 558 764 q 416 835 479 835 q 309 796 347 835 q 272 686 272 757 l 272 667 l 90 667 l 90 694 q 177 915 90 838 q 415 991 264 991 q 657 913 565 991 q 750 705 750 835 q 743 639 750 671 q 720 578 736 608 q 690 526 705 549 q 649 476 675 503 q 606 432 623 448 q 559 389 589 416 l 307 157 l 745 157 l 745 0 l 72 0 z "},"3":{"ha":848,"x_min":62,"x_max":772,"o":"m 62 285 l 240 285 q 292 176 245 216 q 414 135 339 135 q 537 178 490 135 q 583 283 583 220 q 539 386 583 349 q 415 424 496 424 l 272 424 l 272 578 l 500 819 l 122 819 l 122 972 l 733 972 l 733 818 l 485 570 q 691 491 610 564 q 772 288 772 418 q 724 129 772 200 q 593 19 675 58 q 412 -20 511 -20 q 279 0 341 -20 q 169 57 217 20 q 92 153 121 94 q 62 285 64 212 z "},"4":{"ha":858,"x_min":62,"x_max":807,"o":"m 62 208 l 62 350 l 355 972 l 529 972 l 249 355 l 507 355 l 507 557 l 684 557 l 684 355 l 807 355 l 807 208 l 684 208 l 684 0 l 507 0 l 507 208 l 62 208 z "},"5":{"ha":866,"x_min":78,"x_max":798,"o":"m 78 258 l 260 258 q 317 170 273 203 q 427 136 361 136 q 560 186 511 136 q 610 317 610 237 q 561 443 610 393 q 432 493 513 493 q 271 408 320 493 l 94 408 l 186 972 l 707 972 l 707 819 l 338 819 l 297 586 q 481 647 362 647 q 708 558 618 647 q 798 322 798 469 q 770 189 798 252 q 694 80 743 125 q 576 7 646 34 q 427 -20 507 -20 q 194 53 292 -20 q 78 258 96 125 z "},"6":{"ha":852,"x_min":66,"x_max":796,"o":"m 66 321 q 93 478 66 410 q 170 619 119 547 l 414 972 l 618 972 l 347 600 q 490 644 393 644 q 608 622 553 644 q 706 558 664 599 q 772 455 747 517 q 796 319 796 393 q 748 149 796 227 q 616 26 700 71 q 431 -20 532 -20 q 165 76 264 -20 q 66 321 66 171 m 256 315 q 302 183 256 234 q 432 132 348 132 q 559 185 510 132 q 608 317 608 239 q 562 448 608 398 q 433 498 515 498 q 304 447 353 498 q 256 315 256 396 z "},"7":{"ha":761,"x_min":69,"x_max":705,"o":"m 69 815 l 69 972 l 705 972 l 705 836 l 302 0 l 107 0 l 509 815 l 69 815 z "},"8":{"ha":880,"x_min":81,"x_max":800,"o":"m 81 272 q 241 507 81 439 q 152 592 184 538 q 119 722 119 646 q 210 920 119 848 q 440 991 300 991 q 671 920 581 991 q 761 722 761 848 q 728 592 761 646 q 639 507 696 538 q 800 272 800 439 q 700 61 800 142 q 440 -20 600 -20 q 181 61 281 -20 q 81 272 81 142 m 267 272 q 313 164 267 201 q 440 126 360 126 q 567 164 520 126 q 614 272 614 201 q 567 383 614 344 q 440 422 520 422 q 313 383 360 422 q 267 272 267 344 m 301 708 q 339 608 301 647 q 440 570 377 570 q 541 608 503 570 q 579 708 579 647 q 542 810 579 773 q 440 847 505 847 q 338 810 375 847 q 301 708 301 773 z "},"9":{"ha":852,"x_min":57,"x_max":786,"o":"m 57 653 q 157 897 57 802 q 419 991 258 991 q 685 899 584 991 q 786 654 786 806 q 705 385 786 503 l 447 0 l 239 0 l 490 367 q 436 338 473 349 q 363 328 400 328 q 245 351 300 328 q 148 415 189 374 q 81 518 106 456 q 57 653 57 580 m 293 789 q 268 763 293 789 q 244 656 244 738 q 291 524 244 574 q 419 473 337 473 q 549 527 500 473 q 597 657 597 580 q 550 789 597 738 q 421 840 503 840 q 293 789 341 840 z "},"\u0000":{"ha":1389,"x_min":0,"x_max":0,"o":""},"\r":{"ha":1389,"x_min":0,"x_max":0,"o":""}," ":{"ha":305,"x_min":0,"x_max":0,"o":""},"!":{"ha":411,"x_min":97,"x_max":314,"o":"m 127 19 q 112 34 127 19 q 97 97 97 49 q 127 175 97 145 q 205 205 157 205 q 284 175 254 205 q 314 97 314 145 q 284 19 314 49 q 205 -11 254 -11 q 127 19 157 -11 m 107 587 l 107 972 l 304 972 l 304 587 l 258 281 l 153 281 l 107 587 z "},"\"":{"ha":676,"x_min":100,"x_max":576,"o":"m 100 583 l 100 972 l 264 972 l 264 583 l 100 583 m 412 583 l 412 972 l 576 972 l 576 583 l 412 583 z "},"#":{"ha":940,"x_min":56,"x_max":892,"o":"m 56 267 l 56 395 l 208 395 l 231 593 l 85 593 l 85 721 l 244 721 l 272 972 l 416 972 l 389 721 l 614 721 l 642 972 l 786 972 l 758 721 l 892 721 l 892 593 l 745 593 l 722 395 l 863 395 l 863 267 l 708 267 l 679 0 l 534 0 l 564 267 l 339 267 l 310 0 l 165 0 l 195 267 l 56 267 m 353 395 l 578 395 l 600 593 l 375 593 l 353 395 z "},"$":{"ha":819,"x_min":74,"x_max":757,"o":"m 74 289 l 74 311 l 254 311 l 254 289 q 297 183 254 219 q 416 147 339 147 q 530 182 488 147 q 572 275 572 216 q 551 344 572 318 q 482 387 529 370 l 297 454 q 206 493 243 473 q 139 542 169 513 q 95 611 109 571 q 81 703 81 650 q 145 876 81 810 q 318 964 210 943 l 318 1125 l 504 1125 l 504 962 q 671 872 610 940 q 732 700 732 804 l 732 671 l 553 671 l 553 696 q 515 789 553 755 q 407 822 477 822 q 303 794 341 822 q 265 713 265 766 q 288 651 265 673 q 355 612 311 629 l 533 549 q 623 508 585 529 q 692 457 660 488 q 741 385 724 427 q 757 289 757 342 q 689 107 757 182 q 510 8 621 31 l 510 -153 l 323 -153 l 323 8 q 140 103 205 29 q 74 289 74 177 z "},"%":{"ha":1227,"x_min":62,"x_max":1173,"o":"m 62 656 l 62 768 q 124 926 62 866 q 290 986 185 986 q 457 926 395 986 q 518 768 518 866 l 518 656 q 457 498 518 558 q 290 437 395 437 q 124 498 185 437 q 62 656 62 558 m 196 644 q 221 575 196 601 q 290 550 245 550 q 360 575 335 550 q 385 644 385 601 l 385 779 q 360 848 385 823 q 290 873 335 873 q 221 848 245 873 q 196 779 196 823 l 196 644 m 297 0 l 798 972 l 937 972 l 437 0 l 297 0 m 717 204 l 717 317 q 778 474 717 414 q 945 534 840 534 q 1111 474 1050 534 q 1173 317 1173 414 l 1173 204 q 1111 46 1173 106 q 945 -14 1050 -14 q 778 46 840 -14 q 717 204 717 106 m 850 193 q 875 124 850 150 q 945 98 900 98 q 1014 124 989 98 q 1039 193 1039 150 l 1039 328 q 1014 397 1039 371 q 945 422 989 422 q 875 397 900 422 q 850 328 850 371 l 850 193 z "},"&":{"ha":956,"x_min":69,"x_max":935,"o":"m 69 290 q 241 562 69 472 q 179 650 201 606 q 157 754 157 694 q 233 926 157 860 q 432 991 309 991 q 632 926 558 991 q 705 757 705 861 l 705 700 l 549 700 l 549 755 q 519 832 549 802 q 433 863 489 863 q 350 835 381 863 q 318 758 318 807 q 335 701 318 727 q 386 643 353 675 l 693 336 q 694 376 694 350 l 694 488 l 844 488 l 844 370 q 817 211 844 285 l 935 94 l 823 -20 l 726 77 q 447 -20 621 -20 q 173 64 277 -20 q 69 290 69 149 m 236 292 q 298 160 236 208 q 456 113 360 113 q 629 175 569 113 l 336 468 q 236 292 236 399 z "},"'":{"ha":363,"x_min":100,"x_max":264,"o":"m 100 583 l 100 972 l 264 972 l 264 583 l 100 583 z "},"(":{"ha":462,"x_min":90,"x_max":441,"o":"m 260 -186 q 90 450 90 132 q 260 1086 90 769 l 441 1086 q 322 748 360 897 q 283 450 283 598 q 322 153 283 302 q 441 -186 360 3 l 260 -186 z "},")":{"ha":462,"x_min":21,"x_max":372,"o":"m 21 -186 q 141 153 102 3 q 179 450 179 302 q 141 748 179 598 q 21 1086 102 897 l 203 1086 q 372 450 372 769 q 203 -186 372 132 l 21 -186 z "},"*":{"ha":614,"x_min":77,"x_max":538,"o":"m 77 643 l 227 729 l 77 817 l 117 886 l 268 799 l 268 972 l 347 972 l 347 799 l 497 886 l 538 817 l 387 729 l 538 643 l 497 574 l 347 660 l 347 488 l 268 488 l 268 661 l 117 574 l 77 643 z "},"+":{"ha":836,"x_min":97,"x_max":739,"o":"m 97 421 l 97 579 l 330 579 l 330 836 l 505 836 l 505 579 l 739 579 l 739 421 l 505 421 l 505 164 l 330 164 l 330 421 l 97 421 z "},",":{"ha":347,"x_min":21,"x_max":292,"o":"m 21 -179 l 90 189 l 292 189 l 167 -179 l 21 -179 z "},"-":{"ha":568,"x_min":77,"x_max":492,"o":"m 77 359 l 77 529 l 492 529 l 492 359 l 77 359 z "},".":{"ha":355,"x_min":69,"x_max":286,"o":"m 99 19 q 84 34 99 19 q 69 97 69 49 q 99 175 69 145 q 178 205 129 205 q 256 175 227 205 q 286 97 286 145 q 256 19 286 49 q 178 -11 227 -11 q 99 19 129 -11 z "},"/":{"ha":658,"x_min":41,"x_max":616,"o":"m 41 -146 l 433 1042 l 616 1042 l 225 -146 l 41 -146 z "},":":{"ha":355,"x_min":69,"x_max":286,"o":"m 99 19 q 84 34 99 19 q 69 97 69 49 q 99 175 69 145 q 178 205 129 205 q 256 175 227 205 q 286 97 286 145 q 256 19 286 49 q 178 -11 227 -11 q 99 19 129 -11 m 99 452 q 84 467 99 452 q 69 530 69 482 q 99 609 69 578 q 178 639 129 639 q 256 609 227 639 q 286 530 286 578 q 256 452 286 482 q 178 422 227 422 q 99 452 129 422 z "},";":{"ha":355,"x_min":-3,"x_max":279,"o":"m -3 -179 l 66 189 l 268 189 l 143 -179 l -3 -179 m 92 452 q 77 467 92 452 q 62 530 62 482 q 92 609 62 578 q 171 639 122 639 q 250 609 220 639 q 279 530 279 578 q 250 452 279 482 q 171 422 220 422 q 92 452 122 422 z "},"<":{"ha":801,"x_min":69,"x_max":711,"o":"m 69 439 l 69 561 l 711 850 l 711 677 l 294 500 l 711 322 l 711 150 l 69 439 z "},"=":{"ha":858,"x_min":111,"x_max":747,"o":"m 111 252 l 111 404 l 747 404 l 747 252 l 111 252 m 111 596 l 111 749 l 747 749 l 747 596 l 111 596 z "},">":{"ha":801,"x_min":90,"x_max":732,"o":"m 90 150 l 90 322 l 507 500 l 90 677 l 90 850 l 732 561 l 732 439 l 90 150 z "},"?":{"ha":700,"x_min":35,"x_max":669,"o":"m 35 686 l 35 721 q 120 923 35 855 q 350 991 205 991 q 581 921 492 991 q 669 736 669 851 q 642 618 669 667 q 561 530 614 570 l 490 479 q 446 442 460 458 q 422 399 431 426 q 414 332 414 372 l 414 292 l 245 292 l 245 355 q 266 485 245 434 q 334 571 286 536 l 397 618 q 461 674 442 650 q 481 736 481 698 q 444 811 481 783 q 346 839 408 839 q 244 808 279 839 q 208 718 208 778 l 208 686 l 35 686 m 255 19 q 240 34 255 19 q 225 97 225 49 q 255 175 225 145 q 334 205 285 205 q 412 175 382 205 q 441 97 441 145 q 412 19 441 49 q 334 -11 382 -11 q 255 19 285 -11 z "},"@":{"ha":1294,"x_min":72,"x_max":1229,"o":"m 72 371 q 114 612 72 500 q 232 809 155 725 q 427 943 309 894 q 689 991 545 991 q 915 955 812 991 q 1085 853 1017 918 q 1191 701 1154 789 q 1229 513 1229 614 q 1219 399 1229 454 q 1187 296 1209 345 q 1134 212 1166 248 q 1056 156 1103 176 q 954 135 1010 135 q 830 165 883 135 q 764 250 778 195 q 695 182 746 211 q 581 153 644 153 q 426 215 486 153 q 366 374 366 277 q 370 427 366 399 l 378 472 q 458 634 397 577 q 616 692 519 692 q 711 670 670 692 q 774 612 752 648 l 786 686 l 925 686 l 871 378 q 867 339 867 357 q 892 263 867 290 q 960 236 917 236 q 1029 262 999 236 q 1075 330 1059 288 q 1098 416 1090 372 q 1105 505 1105 460 q 992 782 1105 677 q 682 886 879 886 q 478 848 570 886 q 325 741 387 809 q 231 577 264 672 q 197 371 197 483 q 227 199 197 278 q 312 63 256 121 q 452 -26 368 6 q 643 -58 537 -58 q 885 -29 777 -58 l 871 -135 q 628 -167 763 -167 q 395 -125 500 -167 q 219 -11 289 -83 q 110 160 149 62 q 72 371 72 258 m 507 379 q 534 298 507 329 q 607 268 560 268 q 686 300 654 268 q 729 395 718 333 l 736 433 q 739 467 739 450 q 712 546 739 515 q 633 576 684 576 q 557 544 586 576 q 518 457 528 512 l 511 416 q 507 379 507 388 z "},"A":{"ha":958,"x_min":32,"x_max":926,"o":"m 32 0 l 380 972 l 578 972 l 926 0 l 733 0 l 668 204 l 290 204 l 225 0 l 32 0 m 339 358 l 618 358 l 479 798 l 339 358 z "},"B":{"ha":920,"x_min":107,"x_max":879,"o":"m 107 0 l 107 972 l 543 972 q 745 905 670 972 q 821 726 821 837 q 787 591 821 648 q 699 503 753 534 q 828 427 778 486 q 879 273 879 368 q 788 76 879 151 q 550 0 696 0 l 107 0 m 296 153 l 541 153 q 647 188 610 153 q 685 286 685 224 q 646 382 685 347 q 539 418 608 418 l 296 418 l 296 153 m 296 570 l 500 570 q 593 605 560 570 q 627 699 627 641 q 593 787 627 754 q 498 819 559 819 l 296 819 l 296 570 z "},"C":{"ha":980,"x_min":78,"x_max":909,"o":"m 78 416 l 78 555 q 103 729 78 650 q 180 866 129 807 q 313 959 231 926 q 503 991 395 991 q 668 962 592 991 q 795 883 744 933 q 876 767 846 833 q 909 627 906 701 l 729 627 q 662 774 719 716 q 503 832 605 832 q 328 760 385 832 q 271 566 271 688 l 271 407 q 328 212 271 284 q 503 140 385 140 q 662 198 605 140 q 729 346 719 256 l 909 346 q 876 205 906 271 q 795 89 846 138 q 668 9 744 39 q 503 -20 592 -20 q 313 13 395 -20 q 180 105 231 46 q 103 243 129 165 q 78 416 78 321 z "},"D":{"ha":976,"x_min":107,"x_max":900,"o":"m 107 0 l 107 972 l 501 972 q 673 944 597 972 q 799 864 749 916 q 874 743 848 813 q 900 590 900 673 l 900 382 q 796 105 900 211 q 501 0 692 0 l 107 0 m 300 158 l 468 158 q 646 216 585 158 q 707 380 707 273 l 707 591 q 646 756 707 699 q 468 814 585 814 l 300 814 l 300 158 z "},"E":{"ha":858,"x_min":107,"x_max":789,"o":"m 107 0 l 107 972 l 787 972 l 787 811 l 301 811 l 301 574 l 746 574 l 746 411 l 301 411 l 301 161 l 789 161 l 789 0 l 107 0 z "},"F":{"ha":821,"x_min":107,"x_max":772,"o":"m 107 0 l 107 972 l 772 972 l 772 811 l 301 811 l 301 554 l 730 554 l 730 393 l 301 393 l 301 0 l 107 0 z "},"G":{"ha":993,"x_min":78,"x_max":916,"o":"m 78 416 l 78 558 q 190 874 78 756 q 498 991 302 991 q 792 894 683 991 q 905 642 901 796 l 721 642 q 661 777 718 722 q 504 832 604 832 q 329 762 388 832 q 271 566 271 691 l 271 412 q 328 210 271 283 q 505 136 385 136 q 667 192 608 136 q 725 330 725 247 l 725 345 l 507 345 l 507 503 l 916 503 l 916 376 q 802 90 916 200 q 503 -20 689 -20 q 315 14 397 -20 q 181 108 233 48 q 104 246 130 168 q 78 416 78 324 z "},"H":{"ha":1001,"x_min":107,"x_max":895,"o":"m 107 0 l 107 972 l 301 972 l 301 574 l 700 574 l 700 972 l 895 972 l 895 0 l 700 0 l 700 401 l 301 401 l 301 0 l 107 0 z "},"I":{"ha":422,"x_min":114,"x_max":309,"o":"m 114 0 l 114 972 l 309 972 l 309 0 l 114 0 z "},"J":{"ha":844,"x_min":50,"x_max":742,"o":"m 50 285 l 50 298 l 235 298 l 235 286 q 276 180 235 219 q 393 142 318 142 q 508 181 469 142 q 547 286 547 220 l 547 972 l 742 972 l 742 286 q 645 65 742 151 q 393 -20 548 -20 q 142 63 235 -20 q 50 285 50 145 z "},"K":{"ha":904,"x_min":107,"x_max":882,"o":"m 107 0 l 107 972 l 301 972 l 301 505 l 644 972 l 871 972 l 505 490 l 882 0 l 653 0 l 301 476 l 301 0 l 107 0 z "},"L":{"ha":805,"x_min":107,"x_max":749,"o":"m 107 0 l 107 972 l 301 972 l 301 161 l 749 161 l 749 0 l 107 0 z "},"M":{"ha":1122,"x_min":107,"x_max":1015,"o":"m 107 0 l 107 972 l 286 972 l 561 416 l 836 972 l 1015 972 l 1015 0 l 829 0 l 829 597 l 647 236 l 475 236 l 293 597 l 293 0 l 107 0 z "},"N":{"ha":1012,"x_min":107,"x_max":905,"o":"m 107 0 l 107 972 l 292 972 l 715 325 l 715 972 l 905 972 l 905 0 l 721 0 l 297 647 l 297 0 l 107 0 z "},"O":{"ha":1022,"x_min":78,"x_max":945,"o":"m 78 415 l 78 557 q 106 729 78 650 q 188 867 134 808 q 324 959 241 926 q 511 991 407 991 q 700 959 616 991 q 836 867 783 926 q 917 729 889 808 q 945 557 945 650 l 945 415 q 917 242 945 321 q 836 105 889 163 q 700 13 783 46 q 511 -20 616 -20 q 324 13 407 -20 q 188 105 241 46 q 106 242 134 163 q 78 415 78 321 m 272 406 q 333 214 272 286 q 511 142 393 142 q 690 213 629 142 q 750 406 750 285 l 750 567 q 690 759 750 688 q 511 831 629 831 q 333 759 393 831 q 272 567 272 687 l 272 406 z "},"P":{"ha":905,"x_min":107,"x_max":872,"o":"m 107 0 l 107 972 l 511 972 q 775 883 677 972 q 872 646 872 793 q 773 406 872 498 q 511 314 674 314 l 301 314 l 301 0 l 107 0 m 301 473 l 498 473 q 632 522 587 473 q 677 646 677 570 q 632 767 677 721 q 498 812 587 812 l 301 812 l 301 473 z "},"Q":{"ha":1022,"x_min":78,"x_max":945,"o":"m 78 415 l 78 557 q 106 729 78 650 q 188 867 134 808 q 324 959 241 926 q 511 991 407 991 q 700 959 616 991 q 836 867 783 926 q 917 729 889 808 q 945 557 945 650 l 945 415 q 909 222 945 309 q 806 77 873 135 l 878 -32 l 742 -121 l 663 0 q 511 -20 588 -20 q 324 13 407 -20 q 188 105 241 46 q 106 242 134 163 q 78 415 78 321 m 272 406 q 333 214 272 286 q 511 142 393 142 q 567 146 541 142 l 490 264 l 625 347 l 703 231 q 750 406 750 297 l 750 567 q 690 759 750 688 q 511 831 629 831 q 333 759 393 831 q 272 567 272 687 l 272 406 z "},"R":{"ha":969,"x_min":107,"x_max":908,"o":"m 107 0 l 107 972 l 546 972 q 805 881 713 972 q 897 642 897 789 q 846 459 897 538 q 705 342 795 380 l 908 0 l 684 0 l 505 311 l 301 311 l 301 0 l 107 0 m 301 468 l 522 468 q 656 516 609 468 q 703 643 703 564 q 656 768 703 723 q 522 814 609 814 l 301 814 l 301 468 z "},"S":{"ha":908,"x_min":77,"x_max":842,"o":"m 77 282 l 77 307 l 262 307 l 262 286 q 315 174 262 216 q 464 131 368 131 q 603 168 551 131 q 654 272 654 205 q 562 382 654 358 l 309 447 q 143 533 195 475 q 92 699 92 591 q 188 913 92 835 q 449 991 284 991 q 705 911 609 991 q 800 701 800 831 l 800 677 l 621 677 l 621 697 q 577 802 621 762 q 449 842 534 842 q 325 810 370 842 q 279 715 279 778 q 363 612 279 633 l 629 542 q 842 288 842 486 q 791 127 842 197 q 654 18 741 56 q 457 -20 566 -20 q 180 61 283 -20 q 77 282 77 141 z "},"T":{"ha":817,"x_min":36,"x_max":781,"o":"m 36 811 l 36 972 l 781 972 l 781 811 l 505 811 l 505 0 l 311 0 l 311 811 l 36 811 z "},"U":{"ha":1000,"x_min":100,"x_max":900,"o":"m 100 350 l 100 972 l 293 972 l 293 342 q 349 195 293 248 q 500 142 405 142 q 650 195 594 142 q 705 342 705 248 l 705 972 l 900 972 l 900 350 q 793 82 900 183 q 500 -20 686 -20 q 207 82 313 -20 q 100 350 100 183 z "},"V":{"ha":924,"x_min":31,"x_max":895,"o":"m 31 972 l 229 972 l 463 212 l 696 972 l 895 972 l 572 0 l 353 0 l 31 972 z "},"W":{"ha":1341,"x_min":41,"x_max":1300,"o":"m 41 972 l 233 972 l 374 269 l 576 972 l 765 972 l 968 269 l 1108 972 l 1300 972 l 1071 0 l 884 0 l 671 749 l 458 0 l 271 0 l 41 972 z "},"X":{"ha":928,"x_min":41,"x_max":886,"o":"m 41 0 l 364 496 l 56 972 l 256 972 l 464 648 l 672 972 l 872 972 l 564 496 l 886 0 l 682 0 l 464 340 l 245 0 l 41 0 z "},"Y":{"ha":883,"x_min":11,"x_max":872,"o":"m 11 972 l 222 972 l 441 539 l 661 972 l 872 972 l 539 350 l 539 0 l 345 0 l 345 350 l 11 972 z "},"Z":{"ha":866,"x_min":77,"x_max":794,"o":"m 77 0 l 77 161 l 564 811 l 97 811 l 97 972 l 782 972 l 782 811 l 294 161 l 794 161 l 794 0 l 77 0 z "},"[":{"ha":530,"x_min":104,"x_max":496,"o":"m 104 -186 l 104 1086 l 496 1086 l 496 930 l 293 930 l 293 -31 l 496 -31 l 496 -186 l 104 -186 z "},"\\":{"ha":658,"x_min":41,"x_max":616,"o":"m 41 1042 l 225 1042 l 616 -146 l 433 -146 l 41 1042 z "},"]":{"ha":530,"x_min":35,"x_max":427,"o":"m 35 -31 l 237 -31 l 237 930 l 35 930 l 35 1086 l 427 1086 l 427 -186 l 35 -186 l 35 -31 z "},"^":{"ha":739,"x_min":56,"x_max":684,"o":"m 56 575 l 289 972 l 450 972 l 684 575 l 501 575 l 370 818 l 237 575 l 56 575 z "},"_":{"ha":719,"x_min":-1,"x_max":721,"o":"m -1 -89 l 721 -89 l 721 -189 l -1 -189 l -1 -89 z "},"`":{"ha":548,"x_min":107,"x_max":441,"o":"m 107 1018 l 340 1018 l 441 804 l 252 804 l 107 1018 z "},"a":{"ha":812,"x_min":62,"x_max":726,"o":"m 62 208 q 141 380 62 322 q 354 437 219 437 q 460 419 413 437 q 538 376 508 401 l 538 475 q 504 558 538 526 q 412 591 470 591 q 288 524 322 591 l 113 524 q 224 684 143 628 q 422 739 305 739 q 642 663 558 739 q 726 461 726 587 l 726 0 l 545 0 l 545 66 q 460 7 520 31 q 336 -17 400 -17 q 138 43 213 -17 q 62 208 62 104 m 245 214 q 284 137 245 165 q 385 109 323 109 q 493 139 448 109 q 538 215 538 170 q 496 289 538 262 q 390 317 455 317 q 284 290 323 317 q 245 214 245 263 z "},"b":{"ha":852,"x_min":93,"x_max":791,"o":"m 93 0 l 93 1014 l 282 1014 l 282 642 q 367 712 313 685 q 489 739 420 739 q 653 695 583 739 q 757 581 723 652 q 791 421 791 509 l 791 301 q 757 143 791 214 q 652 27 722 72 q 488 -17 582 -17 q 356 12 412 -17 q 273 86 299 40 l 273 0 l 93 0 m 282 310 q 326 185 282 233 q 441 136 370 136 q 562 185 520 136 q 603 310 603 234 l 603 412 q 561 538 603 491 q 440 586 518 586 q 328 540 373 586 q 282 415 282 494 l 282 310 z "},"c":{"ha":793,"x_min":61,"x_max":732,"o":"m 61 310 l 61 412 q 152 649 61 558 q 403 739 243 739 q 637 659 547 739 q 732 453 728 578 l 559 453 q 515 549 553 511 q 407 586 477 586 q 290 541 330 586 q 250 419 250 495 l 250 302 q 290 181 250 227 q 407 136 330 136 q 515 174 477 136 q 559 269 553 211 l 732 269 q 637 63 728 144 q 403 -17 547 -17 q 152 74 243 -17 q 61 310 61 164 z "},"d":{"ha":852,"x_min":61,"x_max":760,"o":"m 61 301 l 61 421 q 96 581 61 509 q 200 695 130 652 q 364 739 270 739 q 486 713 433 739 q 571 644 539 687 l 571 1014 l 760 1014 l 760 0 l 579 0 l 579 86 q 495 12 550 41 q 366 -17 439 -17 q 201 27 271 -17 q 96 143 131 71 q 61 301 61 214 m 250 310 q 291 185 250 234 q 411 136 332 136 q 527 185 482 136 q 571 310 571 233 l 571 415 q 526 540 571 494 q 412 586 480 586 q 292 538 334 586 q 250 412 250 491 l 250 310 z "},"e":{"ha":777,"x_min":61,"x_max":717,"o":"m 61 306 l 61 404 q 149 647 61 555 q 395 739 236 739 q 572 696 498 739 q 682 582 646 652 q 717 422 717 511 l 717 296 l 244 296 l 244 278 q 282 164 244 209 q 397 119 320 119 q 493 145 455 119 q 546 211 531 171 l 711 211 q 605 47 692 111 q 397 -17 517 -17 q 152 69 243 -17 q 61 306 61 155 m 244 429 l 543 429 l 543 447 q 506 562 543 518 q 395 606 468 606 q 281 560 317 606 q 244 436 244 514 l 244 429 z "},"f":{"ha":504,"x_min":43,"x_max":484,"o":"m 43 570 l 43 722 l 135 722 l 135 789 q 190 960 135 906 q 358 1014 245 1014 l 484 1014 l 484 864 l 401 864 q 341 848 359 864 q 323 790 323 831 l 323 722 l 469 722 l 469 570 l 323 570 l 323 0 l 135 0 l 135 570 l 43 570 z "},"g":{"ha":847,"x_min":61,"x_max":754,"o":"m 61 334 l 61 439 q 80 554 61 500 q 136 649 100 608 q 230 715 172 691 q 359 739 288 739 q 495 708 437 739 q 574 635 553 676 l 574 722 l 754 722 l 754 16 q 656 -180 754 -101 q 408 -258 558 -258 q 184 -201 278 -258 q 69 -43 91 -143 l 253 -43 q 408 -115 289 -115 q 523 -79 480 -115 q 566 18 566 -42 l 566 132 q 483 63 541 92 q 358 33 425 33 q 230 58 288 33 q 136 124 172 83 q 80 220 100 166 q 61 334 61 273 m 249 343 q 289 228 249 272 q 403 184 328 184 q 519 227 472 184 q 566 343 566 269 l 566 427 q 521 543 566 498 q 408 587 477 587 q 290 545 330 587 q 249 427 249 502 l 249 343 z "},"h":{"ha":827,"x_min":93,"x_max":742,"o":"m 93 0 l 93 1014 l 282 1014 l 282 636 q 364 711 311 684 q 486 739 418 739 q 673 665 604 739 q 742 463 742 591 l 742 0 l 553 0 l 553 432 q 520 536 553 498 q 421 575 487 575 q 319 537 356 575 q 282 428 282 499 l 282 0 l 93 0 z "},"i":{"ha":383,"x_min":82,"x_max":301,"o":"m 113 833 q 98 848 113 833 q 82 911 82 864 q 113 989 82 958 q 192 1021 144 1021 q 270 989 239 1021 q 301 911 301 958 q 270 833 301 864 q 192 802 239 802 q 113 833 144 802 m 97 0 l 97 722 l 286 722 l 286 0 l 97 0 z "},"j":{"ha":383,"x_min":-1,"x_max":301,"o":"m -1 -96 l 41 -96 q 84 -85 71 -96 q 97 -49 97 -75 l 97 722 l 286 722 l 286 -65 q 239 -196 286 -151 q 98 -241 193 -241 l -1 -241 l -1 -96 m 113 833 q 98 848 113 833 q 82 911 82 864 q 113 989 82 958 q 192 1021 144 1021 q 270 989 239 1021 q 301 911 301 958 q 270 833 301 864 q 192 802 239 802 q 113 833 144 802 z "},"k":{"ha":755,"x_min":93,"x_max":734,"o":"m 93 0 l 93 1014 l 282 1014 l 282 386 l 511 722 l 726 722 l 478 370 l 734 0 l 519 0 l 282 353 l 282 0 l 93 0 z "},"l":{"ha":383,"x_min":97,"x_max":286,"o":"m 97 0 l 97 1014 l 286 1014 l 286 0 l 97 0 z "},"m":{"ha":1274,"x_min":93,"x_max":1187,"o":"m 93 0 l 93 722 l 273 722 l 273 636 q 482 739 329 739 q 605 712 551 739 q 690 636 658 686 q 929 739 771 739 q 1116 665 1044 739 q 1187 463 1187 591 l 1187 0 l 999 0 l 999 432 q 967 536 999 498 q 869 575 935 575 q 770 537 806 575 q 734 428 734 500 l 734 0 l 546 0 l 546 432 q 514 536 546 498 q 416 575 482 575 q 317 537 352 575 q 282 428 282 500 l 282 0 l 93 0 z "},"n":{"ha":827,"x_min":93,"x_max":742,"o":"m 93 0 l 93 722 l 273 722 l 273 636 q 486 739 329 739 q 673 666 604 739 q 742 463 742 592 l 742 0 l 553 0 l 553 432 q 520 536 553 498 q 421 575 487 575 q 319 537 356 575 q 282 428 282 499 l 282 0 l 93 0 z "},"o":{"ha":802,"x_min":61,"x_max":742,"o":"m 61 310 l 61 412 q 152 647 61 555 q 401 739 243 739 q 651 647 559 739 q 742 412 742 555 l 742 310 q 651 75 742 168 q 401 -17 559 -17 q 152 75 243 -17 q 61 310 61 168 m 244 297 q 284 178 244 223 q 401 132 324 132 q 518 178 479 132 q 558 297 558 223 l 558 425 q 518 545 558 499 q 401 590 479 590 q 284 545 324 590 q 244 425 244 499 l 244 297 z "},"p":{"ha":852,"x_min":93,"x_max":791,"o":"m 93 -241 l 93 722 l 273 722 l 273 636 q 358 710 302 681 q 488 739 414 739 q 618 714 560 739 q 714 644 677 688 q 771 543 751 600 q 791 421 791 486 l 791 301 q 757 142 791 213 q 653 27 723 71 q 489 -17 583 -17 q 365 9 419 -17 q 282 78 311 35 l 282 -241 l 93 -241 m 282 307 q 328 182 282 228 q 440 136 373 136 q 561 184 518 136 q 603 310 603 231 l 603 412 q 562 537 603 488 q 441 586 520 586 q 326 537 370 586 q 282 412 282 489 l 282 307 z "},"q":{"ha":852,"x_min":61,"x_max":760,"o":"m 61 301 l 61 421 q 96 580 61 509 q 201 695 131 651 q 366 739 271 739 q 497 711 441 739 q 579 636 553 682 l 579 722 l 760 722 l 760 -241 l 571 -241 l 571 77 q 490 10 546 37 q 364 -17 433 -17 q 200 27 270 -17 q 96 142 130 71 q 61 301 61 213 m 250 310 q 292 184 250 231 q 412 136 334 136 q 526 182 480 136 q 571 307 571 228 l 571 412 q 527 537 571 489 q 411 586 482 586 q 291 537 332 586 q 250 412 250 488 l 250 310 z "},"r":{"ha":547,"x_min":93,"x_max":511,"o":"m 93 0 l 93 722 l 272 722 l 272 582 q 489 728 304 728 l 511 728 l 511 541 l 472 541 q 330 491 378 541 q 282 334 282 441 l 282 0 l 93 0 z "},"s":{"ha":737,"x_min":62,"x_max":686,"o":"m 62 214 l 62 227 l 229 227 l 229 216 q 269 143 229 170 q 375 117 308 117 q 474 140 436 117 q 513 204 513 163 q 453 269 513 256 l 239 318 q 115 382 155 337 q 74 509 74 428 q 154 679 74 618 q 366 739 234 739 q 574 677 496 739 q 652 509 652 615 l 652 497 l 486 497 l 486 510 q 457 579 486 554 q 368 604 429 604 q 280 584 311 604 q 250 525 250 564 q 264 484 250 498 q 306 464 277 470 l 525 410 q 646 345 606 389 q 686 225 686 300 q 597 52 686 120 q 374 -17 509 -17 q 147 42 232 -17 q 62 214 62 102 z "},"t":{"ha":533,"x_min":37,"x_max":485,"o":"m 37 570 l 37 722 l 140 722 l 140 920 l 330 920 l 330 722 l 485 722 l 485 570 l 330 570 l 330 220 q 346 168 330 184 q 399 153 361 153 l 475 153 l 475 0 l 345 0 q 192 54 243 0 q 140 205 140 108 l 140 570 l 37 570 z "},"u":{"ha":822,"x_min":86,"x_max":729,"o":"m 86 260 l 86 722 l 275 722 l 275 286 q 308 179 275 217 q 403 142 340 142 q 504 181 468 142 q 541 288 541 220 l 541 722 l 729 722 l 729 0 l 549 0 l 549 86 q 466 12 524 40 q 339 -17 408 -17 q 153 59 219 -17 q 86 260 86 134 z "},"v":{"ha":719,"x_min":16,"x_max":704,"o":"m 16 722 l 204 722 l 359 193 l 515 722 l 704 722 l 458 0 l 261 0 l 16 722 z "},"w":{"ha":1094,"x_min":25,"x_max":1069,"o":"m 25 722 l 208 722 l 314 237 l 461 722 l 633 722 l 781 237 l 886 722 l 1069 722 l 882 0 l 705 0 l 547 497 l 389 0 l 212 0 l 25 722 z "},"x":{"ha":749,"x_min":26,"x_max":724,"o":"m 26 0 l 279 367 l 36 722 l 232 722 l 375 509 l 518 722 l 714 722 l 471 367 l 724 0 l 525 0 l 375 225 l 225 0 l 26 0 z "},"y":{"ha":709,"x_min":16,"x_max":694,"o":"m 16 722 l 204 722 l 359 204 l 507 722 l 694 722 l 379 -241 l 193 -241 l 265 3 l 16 722 z "},"z":{"ha":701,"x_min":62,"x_max":646,"o":"m 62 0 l 62 136 l 419 576 l 79 576 l 79 722 l 637 722 l 637 586 l 281 146 l 646 146 l 646 0 l 62 0 z "},"{":{"ha":586,"x_min":35,"x_max":558,"o":"m 35 371 l 35 526 l 78 526 q 193 639 193 526 l 193 836 q 256 1023 193 961 q 453 1084 319 1084 l 558 1084 l 558 929 l 490 929 q 407 905 432 929 q 382 823 382 881 l 382 623 q 240 449 382 471 q 382 275 382 427 l 382 74 q 407 -8 382 16 q 490 -32 432 -32 l 558 -32 l 558 -187 l 453 -187 q 256 -125 319 -187 q 193 61 193 -64 l 193 258 q 78 371 193 371 l 35 371 z "},"|":{"ha":458,"x_min":149,"x_max":310,"o":"m 149 -208 l 149 1111 l 310 1111 l 310 -208 l 149 -208 z "},"}":{"ha":586,"x_min":28,"x_max":551,"o":"m 28 -32 l 96 -32 q 179 -8 154 -32 q 204 74 204 16 l 204 275 q 346 449 204 427 q 204 623 204 471 l 204 823 q 179 905 204 881 q 96 929 154 929 l 28 929 l 28 1084 l 134 1084 q 331 1023 268 1084 q 393 836 393 961 l 393 639 q 509 526 393 526 l 551 526 l 551 371 l 509 371 q 393 258 393 371 l 393 61 q 331 -125 393 -64 q 134 -187 268 -187 l 28 -187 l 28 -32 z "},"~":{"ha":891,"x_min":69,"x_max":827,"o":"m 69 389 q 143 576 90 513 q 294 640 196 640 q 373 625 328 640 q 455 591 418 610 q 529 557 492 572 q 586 542 567 542 q 606 544 597 542 q 621 553 614 547 q 633 564 628 559 q 643 581 637 569 q 651 598 648 593 q 658 620 653 604 q 665 640 663 635 l 827 585 q 805 517 817 547 q 776 456 794 487 q 737 406 758 426 q 684 372 715 385 q 616 359 653 359 q 519 384 578 359 q 405 434 460 409 q 322 458 351 458 q 287 451 301 458 q 262 427 272 444 q 247 395 252 410 q 235 350 241 379 l 69 389 z "}," ":{"ha":305,"x_min":0,"x_max":0,"o":""},"¡":{"ha":411,"x_min":97,"x_max":314,"o":"m 127 797 q 112 812 127 797 q 97 875 97 827 q 127 953 97 923 q 205 983 157 983 q 284 953 254 983 q 314 875 314 923 q 284 797 314 827 q 205 766 254 766 q 127 797 157 766 m 107 0 l 107 385 l 153 692 l 258 692 l 304 385 l 304 0 l 107 0 z "},"¢":{"ha":805,"x_min":79,"x_max":725,"o":"m 79 446 l 79 526 q 142 722 79 642 q 311 823 204 802 l 311 972 l 500 972 l 500 823 q 660 734 599 805 q 725 570 721 663 l 550 570 q 508 650 545 618 q 408 682 471 682 q 300 641 338 682 q 262 526 262 600 l 262 446 q 300 331 262 372 q 408 290 338 290 q 508 322 471 290 q 550 403 545 354 l 725 403 q 660 241 721 311 q 500 147 600 171 l 500 0 l 311 0 l 311 147 q 141 251 203 172 q 79 446 79 330 z "},"£":{"ha":933,"x_min":89,"x_max":868,"o":"m 89 0 l 89 153 l 249 153 l 249 386 l 109 386 l 109 539 l 249 539 l 249 703 q 333 918 249 844 q 559 991 418 991 q 786 916 704 991 q 868 711 868 840 l 868 684 l 693 684 l 693 713 q 661 802 693 768 q 567 836 629 836 q 437 705 437 836 l 437 539 l 699 539 l 699 386 l 437 386 l 437 153 l 808 153 l 808 0 l 89 0 z "},"¤":{"ha":863,"x_min":83,"x_max":781,"o":"m 83 118 l 200 301 q 154 449 154 364 l 154 517 q 200 664 154 599 l 83 847 l 272 847 l 329 754 q 432 770 379 770 q 534 754 482 770 l 591 847 l 781 847 l 664 664 q 710 517 710 599 l 710 449 q 664 301 710 364 l 781 118 l 591 118 l 534 211 q 432 196 484 196 q 329 211 377 196 l 272 118 l 83 118 m 315 439 q 346 359 315 390 q 432 328 376 328 q 518 359 488 328 q 549 439 549 390 l 549 526 q 518 606 549 575 q 432 637 488 637 q 346 606 376 637 q 315 526 315 575 l 315 439 z "},"¥":{"ha":844,"x_min":56,"x_max":789,"o":"m 56 972 l 260 972 l 422 543 l 585 972 l 789 972 l 623 595 l 747 595 l 747 454 l 559 454 l 517 355 l 517 329 l 747 329 l 747 189 l 517 189 l 517 0 l 328 0 l 328 189 l 97 189 l 97 329 l 328 329 l 328 355 l 283 454 l 97 454 l 97 595 l 222 595 l 56 972 z "},"¦":{"ha":458,"x_min":149,"x_max":310,"o":"m 149 -208 l 149 330 l 310 330 l 310 -208 l 149 -208 m 149 572 l 149 1111 l 310 1111 l 310 572 l 149 572 z "},"§":{"ha":858,"x_min":83,"x_max":782,"o":"m 83 424 q 179 614 83 532 q 132 749 132 663 q 215 927 132 863 q 435 991 297 991 q 663 925 583 991 q 743 741 743 858 l 743 724 l 581 724 l 581 742 q 545 824 581 794 q 439 854 510 854 q 339 830 374 854 q 304 760 304 806 q 322 706 304 725 q 382 672 340 688 l 603 591 q 738 509 694 558 q 782 379 782 459 q 693 183 782 275 q 734 54 734 133 q 649 -120 734 -51 q 425 -189 564 -189 q 199 -122 286 -189 q 113 61 113 -56 l 113 81 l 278 81 l 278 68 q 317 -19 278 14 q 425 -52 355 -52 q 524 -26 486 -52 q 562 45 562 -1 q 544 98 562 80 q 485 131 525 117 l 258 210 q 129 291 174 239 q 83 424 83 342 m 256 441 q 273 384 256 406 q 330 347 290 362 l 568 261 q 610 361 610 309 q 532 454 610 424 l 302 539 q 256 441 256 490 z "},"¨":{"ha":700,"x_min":103,"x_max":597,"o":"m 132 837 q 117 851 132 837 q 103 909 103 865 q 132 982 103 954 q 204 1011 161 1011 q 277 982 248 1011 q 306 909 306 954 q 277 837 306 866 q 204 808 248 808 q 132 837 160 808 m 423 837 q 409 851 423 837 q 395 909 395 865 q 424 982 395 954 q 496 1011 452 1011 q 569 982 540 1011 q 597 909 597 954 q 569 837 597 866 q 496 808 540 808 q 423 837 452 808 z "},"©":{"ha":1147,"x_min":69,"x_max":1078,"o":"m 106 291 q 88 337 106 291 q 69 486 69 383 q 106 682 69 589 q 208 842 143 774 q 368 949 273 909 q 574 989 463 989 q 780 949 685 989 q 940 841 875 909 q 1041 681 1004 773 q 1078 486 1078 589 q 1041 291 1078 383 q 940 131 1004 199 q 780 23 875 62 q 574 -17 685 -17 q 368 23 463 -17 q 208 131 273 62 q 106 291 143 199 m 158 657 q 142 617 158 657 q 126 486 126 576 q 158 315 126 397 q 246 170 189 233 q 388 71 303 108 q 574 33 473 33 q 760 71 675 33 q 901 170 845 108 q 989 315 958 233 q 1021 486 1021 397 q 989 657 1021 576 q 901 802 958 739 q 760 902 845 865 q 574 939 675 939 q 388 902 473 939 q 246 802 303 865 q 158 657 189 739 m 361 450 l 361 522 q 417 675 361 614 q 576 737 473 737 q 721 685 664 737 q 783 554 778 632 l 684 554 q 576 647 669 647 q 493 613 520 647 q 467 522 467 578 l 467 450 q 493 359 467 394 q 576 325 520 325 q 684 418 669 325 l 783 418 q 721 287 778 340 q 576 235 664 235 q 417 297 473 235 q 361 450 361 359 z "},"ª":{"ha":594,"x_min":78,"x_max":517,"o":"m 78 318 l 78 429 l 517 429 l 517 318 l 78 318 m 79 652 q 127 759 79 720 q 252 798 176 798 q 326 786 293 798 q 378 755 359 774 l 378 812 q 359 861 378 841 q 306 880 340 880 q 231 839 251 880 l 109 839 q 179 948 127 911 q 311 986 232 986 q 451 934 397 986 q 505 802 505 882 l 505 514 l 385 514 l 385 555 q 329 519 368 535 q 243 503 290 503 q 126 545 173 503 q 79 652 79 588 m 204 653 q 228 608 204 624 q 289 591 251 591 q 352 608 326 591 q 378 653 378 625 q 353 698 378 682 q 293 714 328 714 q 228 699 252 714 q 204 653 204 683 z "},"«":{"ha":882,"x_min":14,"x_max":840,"o":"m 14 383 l 240 684 l 453 684 l 228 383 l 453 83 l 240 83 l 14 383 m 401 383 l 628 684 l 840 684 l 615 383 l 840 83 l 628 83 l 401 383 z "},"¬":{"ha":808,"x_min":69,"x_max":711,"o":"m 69 421 l 69 579 l 711 579 l 711 164 l 534 164 l 534 421 l 69 421 z "},"­":{"ha":568,"x_min":77,"x_max":492,"o":"m 77 359 l 77 529 l 492 529 l 492 359 l 77 359 z "},"®":{"ha":741,"x_min":62,"x_max":679,"o":"m 62 689 q 84 804 62 749 q 144 899 105 858 q 241 964 182 940 q 371 989 300 989 q 536 947 465 989 q 643 838 607 905 q 679 689 679 770 q 643 542 679 610 q 535 431 607 474 q 371 389 464 389 q 241 413 300 389 q 144 480 182 438 q 84 576 105 522 q 62 689 62 630 m 111 689 q 183 505 111 579 q 371 431 256 431 q 558 505 486 431 q 631 689 631 579 q 558 873 631 800 q 371 947 486 947 q 183 873 256 947 q 111 689 111 800 m 272 566 l 272 832 l 395 832 q 466 807 441 832 q 490 741 490 783 q 441 659 490 684 l 494 566 l 424 566 l 380 648 l 334 648 l 334 566 l 272 566 m 334 697 l 382 697 q 429 741 429 697 q 382 782 429 782 l 334 782 l 334 697 z "},"¯":{"ha":686,"x_min":107,"x_max":579,"o":"m 107 832 l 107 981 l 579 981 l 579 832 l 107 832 z "},"°":{"ha":561,"x_min":62,"x_max":498,"o":"m 122 615 q 92 646 122 615 q 62 770 62 677 q 122 924 62 862 q 281 986 182 986 q 439 924 379 986 q 498 770 498 862 q 439 615 498 677 q 281 553 379 553 q 122 615 182 553 m 190 863 q 174 844 190 863 q 158 770 158 826 q 190 676 158 713 q 281 639 222 639 q 371 676 339 639 q 403 770 403 713 q 371 863 403 826 q 281 900 339 900 q 190 863 222 900 z "},"±":{"ha":850,"x_min":104,"x_max":746,"o":"m 104 0 l 104 149 l 338 149 l 338 399 l 104 399 l 104 557 l 338 557 l 338 814 l 513 814 l 513 557 l 746 557 l 746 399 l 513 399 l 513 149 l 746 149 l 746 0 l 104 0 z "},"²":{"ha":559,"x_min":77,"x_max":484,"o":"m 77 639 l 77 737 l 306 932 q 350 1004 350 968 q 331 1048 350 1031 q 279 1064 311 1064 q 205 997 205 1064 l 205 990 l 83 990 l 83 1002 q 137 1129 83 1084 q 281 1175 191 1175 q 427 1128 370 1175 q 484 1007 484 1082 q 456 918 484 955 q 378 842 429 881 l 256 747 l 479 747 l 479 639 l 77 639 z "},"³":{"ha":559,"x_min":69,"x_max":484,"o":"m 69 802 l 186 802 q 211 750 188 770 q 272 729 235 729 q 334 748 311 729 q 357 800 357 768 q 272 863 357 863 l 186 863 l 186 956 l 296 1063 l 109 1063 l 109 1162 l 456 1162 l 456 1063 l 332 954 q 442 912 400 952 q 484 806 484 871 q 421 679 484 729 q 271 629 359 629 q 128 675 184 629 q 69 802 71 722 z "},"´":{"ha":548,"x_min":107,"x_max":441,"o":"m 107 804 l 208 1018 l 441 1018 l 294 804 l 107 804 z "},"µ":{"ha":822,"x_min":86,"x_max":729,"o":"m 86 -241 l 86 722 l 275 722 l 275 286 q 403 142 275 142 q 504 181 468 142 q 541 288 541 220 l 541 722 l 729 722 l 729 0 l 549 0 l 549 86 q 464 11 518 39 q 340 -17 409 -17 q 275 -4 300 -17 l 275 -241 l 86 -241 z "},"¶":{"ha":851,"x_min":68,"x_max":736,"o":"m 68 596 q 173 873 68 774 q 461 972 277 972 l 736 972 l 736 -241 l 607 -241 l 607 859 l 461 859 l 461 224 q 177 322 286 224 q 68 596 68 420 z "},"·":{"ha":355,"x_min":69,"x_max":286,"o":"m 99 319 q 84 334 99 319 q 69 397 69 349 q 99 475 69 446 q 178 505 129 505 q 256 475 227 505 q 286 397 286 446 q 256 319 286 349 q 178 289 227 289 q 99 319 129 289 z "},"¸":{"ha":469,"x_min":107,"x_max":363,"o":"m 107 -174 q 172 -180 140 -180 q 228 -150 228 -180 q 176 -118 228 -122 l 126 -114 l 153 0 l 243 0 l 233 -50 l 256 -53 q 363 -149 363 -66 q 320 -228 363 -198 q 205 -258 278 -258 q 107 -250 144 -258 l 107 -174 z "},"¹":{"ha":431,"x_min":56,"x_max":314,"o":"m 56 996 l 56 1111 l 203 1162 l 314 1162 l 314 639 l 180 639 l 180 1031 l 56 996 z "},"º":{"ha":600,"x_min":78,"x_max":522,"o":"m 78 714 l 78 775 q 137 928 78 870 q 300 986 195 986 q 463 928 404 986 q 522 775 522 869 l 522 714 q 463 561 522 619 q 300 503 404 503 q 137 561 195 503 q 78 714 78 619 m 93 318 l 93 429 l 510 429 l 510 318 l 93 318 m 200 711 q 300 604 200 604 q 400 711 400 604 l 400 778 q 300 885 400 885 q 200 778 200 885 l 200 711 z "},"»":{"ha":882,"x_min":41,"x_max":868,"o":"m 41 83 l 267 383 l 41 684 l 254 684 l 481 383 l 254 83 l 41 83 m 429 83 l 654 383 l 429 684 l 642 684 l 868 383 l 642 83 l 429 83 z "},"¼":{"ha":1156,"x_min":77,"x_max":1080,"o":"m 77 806 l 77 921 l 224 972 l 335 972 l 335 449 l 201 449 l 201 840 l 77 806 m 229 0 l 729 972 l 869 972 l 370 0 l 229 0 m 627 102 l 627 197 l 793 524 l 918 524 l 760 203 l 889 203 l 889 304 l 1013 304 l 1013 203 l 1080 203 l 1080 102 l 1013 102 l 1013 0 l 889 0 l 889 102 l 627 102 z "},"½":{"ha":1172,"x_min":77,"x_max":1096,"o":"m 77 806 l 77 921 l 224 972 l 335 972 l 335 449 l 201 449 l 201 840 l 77 806 m 229 0 l 729 972 l 869 972 l 370 0 l 229 0 m 689 0 l 689 98 l 918 293 q 962 366 962 330 q 943 409 962 393 q 892 425 924 425 q 818 358 818 425 l 818 351 l 696 351 l 696 363 q 749 491 696 445 q 893 536 803 536 q 1039 490 982 536 q 1096 368 1096 443 q 1068 279 1096 316 q 990 203 1041 242 l 868 109 l 1092 109 l 1092 0 l 689 0 z "},"¾":{"ha":1222,"x_min":77,"x_max":1146,"o":"m 77 611 l 193 611 q 219 559 195 580 q 279 539 242 539 q 341 558 319 539 q 364 610 364 577 q 279 672 364 672 l 193 672 l 193 765 l 302 872 l 115 872 l 115 972 l 463 972 l 463 872 l 339 764 q 449 721 408 762 q 490 615 490 681 q 428 489 490 538 q 278 439 366 439 q 135 485 192 439 q 77 611 79 531 m 294 0 l 794 972 l 935 972 l 435 0 l 294 0 m 692 102 l 692 197 l 859 524 l 983 524 l 825 203 l 954 203 l 954 304 l 1078 304 l 1078 203 l 1146 203 l 1146 102 l 1078 102 l 1078 0 l 954 0 l 954 102 l 692 102 z "},"¿":{"ha":700,"x_min":31,"x_max":665,"o":"m 31 236 q 58 353 31 304 q 139 441 86 402 l 210 493 q 254 530 239 515 q 277 573 269 546 q 286 640 286 600 l 286 681 l 454 681 l 454 616 q 434 487 454 538 q 367 401 414 437 l 302 354 q 258 319 273 333 q 231 284 243 306 q 220 236 220 262 q 256 161 220 189 q 354 134 292 134 q 456 164 420 134 q 492 254 492 195 l 492 286 l 665 286 l 665 252 q 580 49 665 117 q 350 -20 494 -20 q 119 51 208 -20 q 31 236 31 121 m 288 797 q 273 812 288 797 q 258 875 258 827 q 288 953 258 923 q 367 983 318 983 q 445 953 416 983 q 475 875 475 923 q 445 797 475 827 q 367 766 416 766 q 288 797 318 766 z "},"À":{"ha":958,"x_min":32,"x_max":926,"o":"m 32 0 l 380 972 l 578 972 l 926 0 l 733 0 l 668 204 l 290 204 l 225 0 l 32 0 m 240 1242 l 472 1242 l 568 1046 l 376 1046 l 240 1242 m 339 358 l 618 358 l 479 798 l 339 358 z "},"Á":{"ha":958,"x_min":32,"x_max":926,"o":"m 32 0 l 380 972 l 578 972 l 926 0 l 733 0 l 668 204 l 290 204 l 225 0 l 32 0 m 339 358 l 618 358 l 479 798 l 339 358 m 397 1046 l 493 1242 l 725 1242 l 589 1046 l 397 1046 z "},"Â":{"ha":958,"x_min":32,"x_max":926,"o":"m 32 0 l 380 972 l 578 972 l 926 0 l 733 0 l 668 204 l 290 204 l 225 0 l 32 0 m 222 1046 l 386 1242 l 572 1242 l 736 1046 l 554 1046 l 479 1139 l 404 1046 l 222 1046 m 339 358 l 618 358 l 479 798 l 339 358 z "},"Ã":{"ha":958,"x_min":32,"x_max":926,"o":"m 32 0 l 380 972 l 578 972 l 926 0 l 733 0 l 668 204 l 290 204 l 225 0 l 32 0 m 184 1068 q 238 1205 203 1162 q 351 1249 273 1249 q 497 1219 401 1249 q 607 1190 592 1190 q 618 1191 613 1190 q 627 1194 623 1192 q 635 1199 631 1195 q 642 1204 640 1202 q 648 1211 645 1206 q 652 1219 651 1217 q 656 1228 654 1221 q 660 1237 659 1235 q 663 1246 661 1238 q 667 1255 666 1254 l 790 1221 q 765 1147 776 1173 q 736 1095 755 1120 q 692 1058 718 1069 q 627 1047 665 1047 q 498 1076 593 1047 q 370 1105 402 1105 q 331 1089 345 1105 q 310 1040 318 1072 l 184 1068 m 339 358 l 618 358 l 479 798 l 339 358 z "},"Ä":{"ha":958,"x_min":32,"x_max":926,"o":"m 32 0 l 380 972 l 578 972 l 926 0 l 733 0 l 668 204 l 290 204 l 225 0 l 32 0 m 222 1147 q 251 1220 222 1191 q 323 1249 279 1249 q 396 1220 368 1249 q 425 1147 425 1191 q 396 1075 425 1104 q 323 1046 368 1046 q 251 1075 280 1046 q 222 1147 222 1103 m 339 358 l 618 358 l 479 798 l 339 358 m 562 1075 q 548 1089 562 1075 q 533 1147 533 1104 q 562 1220 533 1191 q 635 1249 591 1249 q 707 1220 678 1249 q 736 1147 736 1191 q 707 1075 736 1103 q 635 1046 678 1046 q 562 1075 591 1046 z "},"Å":{"ha":958,"x_min":32,"x_max":926,"o":"m 32 0 l 370 942 q 332 1032 332 978 q 373 1123 332 1086 q 479 1160 414 1160 q 586 1123 546 1160 q 627 1032 627 1086 q 589 942 627 980 l 926 0 l 733 0 l 668 204 l 290 204 l 225 0 l 32 0 m 339 358 l 618 358 l 479 798 l 339 358 m 415 1032 q 433 989 415 1006 q 479 972 451 972 q 526 989 508 972 q 543 1032 543 1006 q 526 1075 543 1059 q 479 1090 509 1090 q 433 1075 450 1090 q 415 1032 415 1059 z "},"Æ":{"ha":1483,"x_min":0,"x_max":1414,"o":"m 0 0 l 652 972 l 1413 972 l 1413 811 l 926 811 l 926 574 l 1371 574 l 1371 411 l 926 411 l 926 161 l 1414 161 l 1414 0 l 732 0 l 732 205 l 340 205 l 208 0 l 0 0 m 440 361 l 732 361 l 732 814 l 440 361 z "},"Ç":{"ha":980,"x_min":78,"x_max":909,"o":"m 78 416 l 78 555 q 103 729 78 650 q 180 866 129 807 q 313 959 231 926 q 503 991 395 991 q 668 962 592 991 q 795 883 744 933 q 876 767 846 833 q 909 627 906 701 l 729 627 q 662 774 719 716 q 503 832 605 832 q 328 760 385 832 q 271 566 271 688 l 271 407 q 328 212 271 284 q 503 140 385 140 q 662 198 605 140 q 729 346 719 256 l 909 346 q 859 170 905 250 q 728 39 813 90 q 532 -18 642 -12 l 526 -50 l 549 -53 q 656 -149 656 -66 q 613 -228 656 -198 q 498 -258 571 -258 q 400 -250 438 -258 l 400 -174 q 465 -180 433 -180 q 521 -150 521 -180 q 469 -118 521 -122 l 419 -114 l 441 -17 q 279 28 350 -8 q 165 122 209 64 q 100 254 122 180 q 78 416 78 328 z "},"È":{"ha":858,"x_min":107,"x_max":789,"o":"m 107 0 l 107 972 l 787 972 l 787 811 l 301 811 l 301 574 l 746 574 l 746 411 l 301 411 l 301 161 l 789 161 l 789 0 l 107 0 m 239 1242 l 471 1242 l 567 1046 l 375 1046 l 239 1242 z "},"É":{"ha":858,"x_min":107,"x_max":789,"o":"m 107 0 l 107 972 l 787 972 l 787 811 l 301 811 l 301 574 l 746 574 l 746 411 l 301 411 l 301 161 l 789 161 l 789 0 l 107 0 m 343 1046 l 439 1242 l 671 1242 l 534 1046 l 343 1046 z "},"Ê":{"ha":858,"x_min":107,"x_max":789,"o":"m 107 0 l 107 972 l 787 972 l 787 811 l 301 811 l 301 574 l 746 574 l 746 411 l 301 411 l 301 161 l 789 161 l 789 0 l 107 0 m 197 1046 l 361 1242 l 547 1242 l 711 1046 l 529 1046 l 454 1139 l 379 1046 l 197 1046 z "},"Ë":{"ha":858,"x_min":107,"x_max":789,"o":"m 107 0 l 107 972 l 787 972 l 787 811 l 301 811 l 301 574 l 746 574 l 746 411 l 301 411 l 301 161 l 789 161 l 789 0 l 107 0 m 200 1147 q 229 1220 200 1191 q 301 1249 258 1249 q 374 1220 345 1249 q 403 1147 403 1191 q 374 1075 403 1104 q 301 1046 345 1046 q 229 1075 258 1046 q 200 1147 200 1103 m 511 1147 q 540 1220 511 1191 q 612 1249 568 1249 q 685 1220 656 1249 q 714 1147 714 1191 q 685 1075 714 1104 q 612 1046 656 1046 q 540 1075 569 1046 q 511 1147 511 1103 z "},"Ì":{"ha":422,"x_min":-20,"x_max":309,"o":"m -20 1242 l 212 1242 l 309 1046 l 117 1046 l -20 1242 m 114 0 l 114 972 l 309 972 l 309 0 l 114 0 z "},"Í":{"ha":422,"x_min":114,"x_max":453,"o":"m 114 0 l 114 972 l 309 972 l 309 0 l 114 0 m 125 1046 l 221 1242 l 453 1242 l 317 1046 l 125 1046 z "},"Î":{"ha":422,"x_min":-46,"x_max":468,"o":"m -46 1046 l 118 1242 l 304 1242 l 468 1046 l 286 1046 l 211 1139 l 136 1046 l -46 1046 m 114 0 l 114 972 l 309 972 l 309 0 l 114 0 z "},"Ï":{"ha":422,"x_min":-46,"x_max":468,"o":"m -17 1075 q -32 1089 -17 1075 q -46 1147 -46 1104 q -17 1220 -46 1191 q 56 1249 12 1249 q 128 1220 99 1249 q 157 1147 157 1191 q 128 1075 157 1103 q 56 1046 99 1046 q -17 1075 12 1046 m 114 0 l 114 972 l 309 972 l 309 0 l 114 0 m 294 1075 q 280 1089 294 1075 q 265 1147 265 1104 q 294 1220 265 1191 q 367 1249 323 1249 q 439 1220 411 1249 q 468 1147 468 1191 q 439 1075 468 1103 q 367 1046 410 1046 q 294 1075 323 1046 z "},"Ð":{"ha":1026,"x_min":46,"x_max":943,"o":"m 46 406 l 46 567 l 150 567 l 150 972 l 545 972 q 716 944 640 972 q 842 864 793 916 q 918 743 892 813 q 943 590 943 673 l 943 382 q 839 105 943 211 q 545 0 735 0 l 150 0 l 150 406 l 46 406 m 343 158 l 511 158 q 689 216 628 158 q 750 380 750 273 l 750 591 q 689 756 750 699 q 511 814 628 814 l 343 814 l 343 567 l 554 567 l 554 406 l 343 406 l 343 158 z "},"Ñ":{"ha":1012,"x_min":107,"x_max":905,"o":"m 107 0 l 107 972 l 292 972 l 715 325 l 715 972 l 905 972 l 905 0 l 721 0 l 297 647 l 297 0 l 107 0 m 204 1068 q 257 1205 222 1162 q 371 1249 292 1249 q 516 1219 421 1249 q 627 1190 612 1190 q 638 1191 633 1190 q 647 1194 643 1192 q 655 1199 651 1195 q 662 1204 659 1202 q 668 1211 665 1206 q 672 1219 671 1217 q 676 1228 673 1221 q 680 1237 679 1235 q 683 1246 680 1238 q 686 1255 686 1254 l 810 1221 q 790 1160 799 1183 q 769 1114 782 1138 q 740 1076 755 1089 q 701 1055 724 1063 q 646 1047 677 1047 q 517 1076 612 1047 q 389 1105 421 1105 q 350 1089 363 1105 q 329 1040 337 1072 l 204 1068 z "},"Ò":{"ha":1022,"x_min":78,"x_max":945,"o":"m 78 415 l 78 557 q 106 729 78 650 q 188 867 134 808 q 324 959 241 926 q 511 991 407 991 q 700 959 616 991 q 836 867 783 926 q 917 729 889 808 q 945 557 945 650 l 945 415 q 917 242 945 321 q 836 105 889 163 q 700 13 783 46 q 511 -20 616 -20 q 324 13 407 -20 q 188 105 241 46 q 106 242 134 163 q 78 415 78 321 m 272 406 q 333 214 272 286 q 511 142 393 142 q 690 213 629 142 q 750 406 750 285 l 750 567 q 690 759 750 688 q 511 831 629 831 q 333 759 393 831 q 272 567 272 687 l 272 406 m 286 1242 l 518 1242 l 614 1046 l 422 1046 l 286 1242 z "},"Ó":{"ha":1022,"x_min":78,"x_max":945,"o":"m 78 415 l 78 557 q 106 729 78 650 q 188 867 134 808 q 324 959 241 926 q 511 991 407 991 q 700 959 616 991 q 836 867 783 926 q 917 729 889 808 q 945 557 945 650 l 945 415 q 917 242 945 321 q 836 105 889 163 q 700 13 783 46 q 511 -20 616 -20 q 324 13 407 -20 q 188 105 241 46 q 106 242 134 163 q 78 415 78 321 m 272 406 q 333 214 272 286 q 511 142 393 142 q 690 213 629 142 q 750 406 750 285 l 750 567 q 690 759 750 688 q 511 831 629 831 q 333 759 393 831 q 272 567 272 687 l 272 406 m 421 1046 l 517 1242 l 749 1242 l 612 1046 l 421 1046 z "},"Ô":{"ha":1022,"x_min":78,"x_max":945,"o":"m 78 415 l 78 557 q 106 729 78 650 q 188 867 134 808 q 324 959 241 926 q 511 991 407 991 q 700 959 616 991 q 836 867 783 926 q 917 729 889 808 q 945 557 945 650 l 945 415 q 917 242 945 321 q 836 105 889 163 q 700 13 783 46 q 511 -20 616 -20 q 324 13 407 -20 q 188 105 241 46 q 106 242 134 163 q 78 415 78 321 m 254 1046 l 418 1242 l 604 1242 l 768 1046 l 586 1046 l 511 1139 l 436 1046 l 254 1046 m 272 406 q 333 214 272 286 q 511 142 393 142 q 690 213 629 142 q 750 406 750 285 l 750 567 q 690 759 750 688 q 511 831 629 831 q 333 759 393 831 q 272 567 272 687 l 272 406 z "},"Õ":{"ha":1022,"x_min":78,"x_max":945,"o":"m 78 415 l 78 557 q 106 729 78 650 q 188 867 134 808 q 324 959 241 926 q 511 991 407 991 q 700 959 616 991 q 836 867 783 926 q 917 729 889 808 q 945 557 945 650 l 945 415 q 917 242 945 321 q 836 105 889 163 q 700 13 783 46 q 511 -20 616 -20 q 324 13 407 -20 q 188 105 241 46 q 106 242 134 163 q 78 415 78 321 m 216 1068 q 270 1205 235 1162 q 383 1249 304 1249 q 529 1219 433 1249 q 639 1190 624 1190 q 650 1191 645 1190 q 659 1194 655 1192 q 667 1199 663 1195 q 674 1204 671 1202 q 680 1211 677 1206 q 684 1219 683 1217 q 688 1228 686 1221 q 692 1237 691 1235 q 695 1246 692 1238 q 699 1255 698 1254 l 822 1221 q 797 1147 808 1173 q 768 1095 787 1120 q 724 1058 750 1069 q 659 1047 697 1047 q 530 1076 625 1047 q 401 1105 434 1105 q 363 1089 376 1105 q 342 1040 350 1072 l 216 1068 m 272 406 q 333 214 272 286 q 511 142 393 142 q 690 213 629 142 q 750 406 750 285 l 750 567 q 690 759 750 688 q 511 831 629 831 q 333 759 393 831 q 272 567 272 687 l 272 406 z "},"Ö":{"ha":1022,"x_min":78,"x_max":945,"o":"m 78 415 l 78 557 q 106 729 78 650 q 188 867 134 808 q 324 959 241 926 q 511 991 407 991 q 700 959 616 991 q 836 867 783 926 q 917 729 889 808 q 945 557 945 650 l 945 415 q 917 242 945 321 q 836 105 889 163 q 700 13 783 46 q 511 -20 616 -20 q 324 13 407 -20 q 188 105 241 46 q 106 242 134 163 q 78 415 78 321 m 254 1147 q 283 1220 254 1191 q 355 1249 312 1249 q 428 1220 399 1249 q 457 1147 457 1191 q 428 1075 457 1104 q 355 1046 399 1046 q 283 1075 312 1046 q 254 1147 254 1103 m 272 406 q 333 214 272 286 q 511 142 393 142 q 690 213 629 142 q 750 406 750 285 l 750 567 q 690 759 750 688 q 511 831 629 831 q 333 759 393 831 q 272 567 272 687 l 272 406 m 566 1147 q 594 1220 566 1191 q 667 1249 623 1249 q 740 1220 711 1249 q 768 1147 768 1191 q 740 1075 768 1104 q 667 1046 711 1046 q 594 1075 623 1046 q 566 1147 566 1103 z "},"×":{"ha":830,"x_min":97,"x_max":733,"o":"m 97 290 l 307 500 l 97 710 l 205 818 l 415 608 l 625 818 l 733 710 l 524 500 l 733 290 l 625 182 l 415 392 l 205 182 l 97 290 z "},"Ø":{"ha":1022,"x_min":78,"x_max":945,"o":"m 78 -69 l 191 102 q 78 415 78 218 l 78 557 q 106 729 78 650 q 188 867 134 808 q 324 959 241 926 q 511 991 407 991 q 743 937 646 991 l 812 1042 l 945 1042 l 832 871 q 945 557 945 754 l 945 415 q 917 242 945 321 q 836 105 889 163 q 700 13 783 46 q 511 -20 616 -20 q 278 35 378 -20 l 210 -69 l 78 -69 m 272 406 q 298 265 272 323 l 648 794 q 511 831 589 831 q 333 759 393 831 q 272 567 272 687 l 272 406 m 374 178 q 511 142 422 142 q 690 213 629 142 q 750 406 750 285 l 750 567 q 722 705 750 655 l 374 178 z "},"Ù":{"ha":1000,"x_min":100,"x_max":900,"o":"m 100 350 l 100 972 l 293 972 l 293 342 q 349 195 293 248 q 500 142 405 142 q 650 195 594 142 q 705 342 705 248 l 705 972 l 900 972 l 900 350 q 793 82 900 183 q 500 -20 686 -20 q 207 82 313 -20 q 100 350 100 183 m 289 1242 l 521 1242 l 616 1046 l 425 1046 l 289 1242 z "},"Ú":{"ha":1000,"x_min":100,"x_max":900,"o":"m 100 350 l 100 972 l 293 972 l 293 342 q 349 195 293 248 q 500 142 405 142 q 650 195 594 142 q 705 342 705 248 l 705 972 l 900 972 l 900 350 q 793 82 900 183 q 500 -20 686 -20 q 207 82 313 -20 q 100 350 100 183 m 393 1046 l 489 1242 l 721 1242 l 585 1046 l 393 1046 z "},"Û":{"ha":1000,"x_min":100,"x_max":900,"o":"m 100 350 l 100 972 l 293 972 l 293 342 q 349 195 293 248 q 500 142 405 142 q 650 195 594 142 q 705 342 705 248 l 705 972 l 900 972 l 900 350 q 793 82 900 183 q 500 -20 686 -20 q 207 82 313 -20 q 100 350 100 183 m 243 1046 l 407 1242 l 593 1242 l 757 1046 l 575 1046 l 500 1139 l 425 1046 l 243 1046 z "},"Ü":{"ha":1000,"x_min":100,"x_max":900,"o":"m 100 350 l 100 972 l 293 972 l 293 342 q 349 195 293 248 q 500 142 405 142 q 650 195 594 142 q 705 342 705 248 l 705 972 l 900 972 l 900 350 q 793 82 900 183 q 500 -20 686 -20 q 207 82 313 -20 q 100 350 100 183 m 272 1075 q 257 1089 272 1075 q 243 1147 243 1104 q 272 1220 243 1191 q 345 1249 300 1249 q 417 1220 388 1249 q 446 1147 446 1191 q 417 1075 446 1103 q 345 1046 388 1046 q 272 1075 301 1046 m 583 1075 q 568 1089 583 1075 q 554 1147 554 1104 q 583 1220 554 1191 q 656 1249 612 1249 q 728 1220 700 1249 q 757 1147 757 1191 q 728 1075 757 1103 q 656 1046 699 1046 q 583 1075 612 1046 z "},"Ý":{"ha":883,"x_min":11,"x_max":872,"o":"m 11 972 l 222 972 l 441 539 l 661 972 l 872 972 l 539 350 l 539 0 l 345 0 l 345 350 l 11 972 m 349 1046 l 444 1242 l 676 1242 l 541 1046 l 349 1046 z "},"Þ":{"ha":905,"x_min":107,"x_max":872,"o":"m 107 0 l 107 972 l 301 972 l 301 827 l 511 827 q 775 737 677 827 q 872 500 872 647 q 773 260 872 353 q 511 168 674 168 l 301 168 l 301 0 l 107 0 m 301 328 l 498 328 q 632 376 587 328 q 677 500 677 424 q 632 621 677 575 q 498 667 587 667 l 301 667 l 301 328 z "},"ß":{"ha":855,"x_min":93,"x_max":811,"o":"m 93 0 l 93 720 q 136 887 93 819 q 251 987 178 956 q 421 1019 324 1019 q 663 944 570 1019 q 755 746 755 868 q 721 608 755 668 q 625 515 687 547 q 764 433 716 489 q 811 279 811 376 q 719 74 811 147 q 472 0 626 0 l 425 0 l 425 150 l 464 150 q 580 186 538 150 q 623 292 623 223 q 581 390 623 354 q 463 425 538 425 l 424 425 l 424 572 q 528 620 490 576 q 567 725 567 663 q 530 829 567 790 q 422 868 492 868 q 319 833 357 868 q 282 728 282 798 l 282 0 l 93 0 z "},"à":{"ha":812,"x_min":62,"x_max":726,"o":"m 62 208 q 141 380 62 322 q 354 437 219 437 q 460 419 413 437 q 538 376 508 401 l 538 475 q 504 558 538 526 q 412 591 470 591 q 288 524 322 591 l 113 524 q 224 684 143 628 q 422 739 305 739 q 642 663 558 739 q 726 461 726 587 l 726 0 l 545 0 l 545 66 q 460 7 520 31 q 336 -17 400 -17 q 138 43 213 -17 q 62 208 62 104 m 193 1018 l 427 1018 l 528 804 l 338 804 l 193 1018 m 245 214 q 284 137 245 165 q 385 109 323 109 q 493 139 448 109 q 538 215 538 170 q 496 289 538 262 q 390 317 455 317 q 284 290 323 317 q 245 214 245 263 z "},"á":{"ha":812,"x_min":62,"x_max":726,"o":"m 62 208 q 141 380 62 322 q 354 437 219 437 q 460 419 413 437 q 538 376 508 401 l 538 475 q 504 558 538 526 q 412 591 470 591 q 288 524 322 591 l 113 524 q 224 684 143 628 q 422 739 305 739 q 642 663 558 739 q 726 461 726 587 l 726 0 l 545 0 l 545 66 q 460 7 520 31 q 336 -17 400 -17 q 138 43 213 -17 q 62 208 62 104 m 245 214 q 284 137 245 165 q 385 109 323 109 q 493 139 448 109 q 538 215 538 170 q 496 289 538 262 q 390 317 455 317 q 284 290 323 317 q 245 214 245 263 m 332 804 l 433 1018 l 667 1018 l 519 804 l 332 804 z "},"â":{"ha":812,"x_min":62,"x_max":726,"o":"m 62 208 q 141 380 62 322 q 354 437 219 437 q 460 419 413 437 q 538 376 508 401 l 538 475 q 504 558 538 526 q 412 591 470 591 q 288 524 322 591 l 113 524 q 224 684 143 628 q 422 739 305 739 q 642 663 558 739 q 726 461 726 587 l 726 0 l 545 0 l 545 66 q 460 7 520 31 q 336 -17 400 -17 q 138 43 213 -17 q 62 208 62 104 m 191 804 l 346 1018 l 529 1018 l 685 804 l 513 804 l 437 911 l 363 804 l 191 804 m 245 214 q 284 137 245 165 q 385 109 323 109 q 493 139 448 109 q 538 215 538 170 q 496 289 538 262 q 390 317 455 317 q 284 290 323 317 q 245 214 245 263 z "},"ã":{"ha":812,"x_min":62,"x_max":726,"o":"m 62 208 q 141 380 62 322 q 354 437 219 437 q 460 419 413 437 q 538 376 508 401 l 538 475 q 504 558 538 526 q 412 591 470 591 q 288 524 322 591 l 113 524 q 224 684 143 628 q 422 739 305 739 q 642 663 558 739 q 726 461 726 587 l 726 0 l 545 0 l 545 66 q 460 7 520 31 q 336 -17 400 -17 q 138 43 213 -17 q 62 208 62 104 m 151 831 q 200 963 164 917 q 310 1010 235 1010 q 431 980 349 1010 q 530 950 513 950 q 559 960 547 950 q 575 979 571 970 q 587 1010 579 988 q 589 1015 588 1013 l 705 979 q 689 926 696 946 q 669 881 682 907 q 641 842 656 855 q 603 818 626 828 q 550 808 579 808 q 436 838 517 808 q 326 868 355 868 q 298 858 309 868 q 281 837 286 848 q 269 802 277 826 l 151 831 m 245 214 q 284 137 245 165 q 385 109 323 109 q 493 139 448 109 q 538 215 538 170 q 496 289 538 262 q 390 317 455 317 q 284 290 323 317 q 245 214 245 263 z "},"ä":{"ha":812,"x_min":62,"x_max":726,"o":"m 62 208 q 141 380 62 322 q 354 437 219 437 q 460 419 413 437 q 538 376 508 401 l 538 475 q 504 558 538 526 q 412 591 470 591 q 288 524 322 591 l 113 524 q 224 684 143 628 q 422 739 305 739 q 642 663 558 739 q 726 461 726 587 l 726 0 l 545 0 l 545 66 q 460 7 520 31 q 336 -17 400 -17 q 138 43 213 -17 q 62 208 62 104 m 222 837 q 208 851 222 837 q 193 909 193 865 q 222 982 193 954 q 294 1011 251 1011 q 367 982 338 1011 q 396 909 396 954 q 367 837 396 866 q 294 808 338 808 q 222 837 251 808 m 245 214 q 284 137 245 165 q 385 109 323 109 q 493 139 448 109 q 538 215 538 170 q 496 289 538 262 q 390 317 455 317 q 284 290 323 317 q 245 214 245 263 m 514 837 q 499 851 514 837 q 485 909 485 865 q 514 982 485 954 q 586 1011 543 1011 q 659 982 629 1011 q 688 909 688 954 q 659 837 688 866 q 586 808 630 808 q 514 837 543 808 z "},"å":{"ha":812,"x_min":62,"x_max":726,"o":"m 62 208 q 141 380 62 322 q 354 437 219 437 q 460 419 413 437 q 538 376 508 401 l 538 475 q 504 558 538 526 q 412 591 470 591 q 288 524 322 591 l 113 524 q 224 684 143 628 q 422 739 305 739 q 642 663 558 739 q 726 461 726 587 l 726 0 l 545 0 l 545 66 q 460 7 520 31 q 336 -17 400 -17 q 138 43 213 -17 q 62 208 62 104 m 245 214 q 284 137 245 165 q 385 109 323 109 q 493 139 448 109 q 538 215 538 170 q 496 289 538 262 q 390 317 455 317 q 284 290 323 317 q 245 214 245 263 m 285 933 q 326 1024 285 987 q 432 1061 366 1061 q 539 1024 498 1061 q 579 933 579 987 q 539 842 579 879 q 432 804 500 804 q 325 842 364 804 q 285 933 285 879 m 368 933 q 386 890 368 907 q 432 873 404 873 q 478 890 460 873 q 496 933 496 907 q 478 976 496 960 q 432 991 461 991 q 386 976 403 991 q 368 933 368 960 z "},"æ":{"ha":1270,"x_min":62,"x_max":1198,"o":"m 62 218 q 102 343 62 292 q 205 417 141 394 q 354 440 269 440 q 461 422 414 440 q 538 378 509 405 l 538 465 q 505 554 538 519 q 414 590 473 590 q 336 574 365 590 q 288 524 307 557 l 113 524 q 217 685 138 630 q 415 739 297 739 q 637 650 559 739 q 738 715 675 691 q 876 739 800 739 q 1054 696 979 739 q 1163 582 1128 652 q 1198 422 1198 511 l 1198 296 l 726 296 l 726 278 q 764 164 726 209 q 879 119 802 119 q 975 145 937 119 q 1028 211 1013 171 l 1193 211 q 1086 47 1174 111 q 879 -17 998 -17 q 728 11 794 -17 q 621 90 662 39 q 510 14 578 45 q 353 -17 441 -17 q 142 48 222 -17 q 62 218 62 113 m 245 216 q 284 139 245 168 q 385 110 323 110 q 493 140 448 110 q 538 215 538 170 q 496 291 538 262 q 390 319 454 319 q 283 293 321 319 q 245 216 245 266 m 726 429 l 1025 429 l 1025 447 q 987 562 1025 518 q 876 606 949 606 q 764 563 802 606 q 726 450 726 521 l 726 429 z "},"ç":{"ha":793,"x_min":61,"x_max":732,"o":"m 61 310 l 61 412 q 152 649 61 558 q 403 739 243 739 q 637 659 547 739 q 732 453 728 578 l 559 453 q 515 549 553 511 q 407 586 477 586 q 290 541 330 586 q 250 419 250 495 l 250 302 q 290 181 250 227 q 407 136 330 136 q 515 174 477 136 q 559 269 553 211 l 732 269 q 650 77 728 154 q 447 -14 572 -1 l 440 -50 l 463 -53 q 570 -149 570 -66 q 527 -228 570 -198 q 412 -258 485 -258 q 314 -250 351 -258 l 314 -174 q 379 -180 347 -180 q 435 -150 435 -180 q 383 -118 435 -122 l 334 -114 l 355 -14 q 139 87 216 -1 q 61 310 61 176 z "},"è":{"ha":777,"x_min":61,"x_max":717,"o":"m 61 306 l 61 404 q 149 647 61 555 q 395 739 236 739 q 572 696 498 739 q 682 582 646 652 q 717 422 717 511 l 717 296 l 244 296 l 244 278 q 282 164 244 209 q 397 119 320 119 q 493 145 455 119 q 546 211 531 171 l 711 211 q 605 47 692 111 q 397 -17 517 -17 q 152 69 243 -17 q 61 306 61 155 m 160 1018 l 393 1018 l 494 804 l 304 804 l 160 1018 m 244 429 l 543 429 l 543 447 q 506 562 543 518 q 395 606 468 606 q 281 560 317 606 q 244 436 244 514 l 244 429 z "},"é":{"ha":777,"x_min":61,"x_max":717,"o":"m 61 306 l 61 404 q 149 647 61 555 q 395 739 236 739 q 572 696 498 739 q 682 582 646 652 q 717 422 717 511 l 717 296 l 244 296 l 244 278 q 282 164 244 209 q 397 119 320 119 q 493 145 455 119 q 546 211 531 171 l 711 211 q 605 47 692 111 q 397 -17 517 -17 q 152 69 243 -17 q 61 306 61 155 m 244 429 l 543 429 l 543 447 q 506 562 543 518 q 395 606 468 606 q 281 560 317 606 q 244 436 244 514 l 244 429 m 300 804 l 401 1018 l 635 1018 l 488 804 l 300 804 z "},"ê":{"ha":777,"x_min":61,"x_max":717,"o":"m 61 306 l 61 404 q 149 647 61 555 q 395 739 236 739 q 572 696 498 739 q 682 582 646 652 q 717 422 717 511 l 717 296 l 244 296 l 244 278 q 282 164 244 209 q 397 119 320 119 q 493 145 455 119 q 546 211 531 171 l 711 211 q 605 47 692 111 q 397 -17 517 -17 q 152 69 243 -17 q 61 306 61 155 m 150 804 l 306 1018 l 489 1018 l 644 804 l 472 804 l 397 911 l 322 804 l 150 804 m 244 429 l 543 429 l 543 447 q 506 562 543 518 q 395 606 468 606 q 281 560 317 606 q 244 436 244 514 l 244 429 z "},"ë":{"ha":777,"x_min":61,"x_max":717,"o":"m 61 306 l 61 404 q 149 647 61 555 q 395 739 236 739 q 572 696 498 739 q 682 582 646 652 q 717 422 717 511 l 717 296 l 244 296 l 244 278 q 282 164 244 209 q 397 119 320 119 q 493 145 455 119 q 546 211 531 171 l 711 211 q 605 47 692 111 q 397 -17 517 -17 q 152 69 243 -17 q 61 306 61 155 m 146 909 q 175 982 146 954 q 248 1011 203 1011 q 320 982 291 1011 q 349 909 349 954 q 320 837 349 865 q 248 808 292 808 q 175 837 203 808 q 146 909 146 866 m 244 429 l 543 429 l 543 447 q 506 562 543 518 q 395 606 468 606 q 281 560 317 606 q 244 436 244 514 l 244 429 m 437 909 q 466 982 437 954 q 539 1011 495 1011 q 611 982 583 1011 q 640 909 640 954 q 612 837 640 865 q 539 808 583 808 q 466 837 495 808 q 437 909 437 866 z "},"ì":{"ha":383,"x_min":-50,"x_max":286,"o":"m -50 1018 l 183 1018 l 285 804 l 94 804 l -50 1018 m 97 0 l 97 722 l 286 722 l 286 0 l 97 0 z "},"í":{"ha":383,"x_min":97,"x_max":440,"o":"m 97 0 l 97 722 l 286 722 l 286 0 l 97 0 m 106 804 l 207 1018 l 440 1018 l 293 804 l 106 804 z "},"î":{"ha":383,"x_min":-56,"x_max":439,"o":"m -56 804 l 100 1018 l 283 1018 l 439 804 l 267 804 l 192 911 l 117 804 l -56 804 m 97 0 l 97 722 l 286 722 l 286 0 l 97 0 z "},"ï":{"ha":383,"x_min":-56,"x_max":439,"o":"m -56 909 q -26 982 -56 954 q 46 1011 3 1011 q 118 982 90 1011 q 147 909 147 954 q 118 837 147 865 q 46 808 90 808 q -27 837 2 808 q -56 909 -56 866 m 97 0 l 97 722 l 286 722 l 286 0 l 97 0 m 236 909 q 265 982 236 954 q 338 1011 294 1011 q 410 982 381 1011 q 439 909 439 954 q 410 837 439 865 q 338 808 381 808 q 265 837 294 808 q 236 909 236 866 z "},"ð":{"ha":804,"x_min":61,"x_max":743,"o":"m 61 300 l 61 387 q 140 616 61 528 q 354 705 219 705 q 525 646 463 705 q 406 810 472 743 l 216 742 l 175 851 l 304 897 q 126 1014 242 944 l 351 1014 q 452 950 410 981 l 608 1007 l 648 899 l 551 863 q 692 657 640 771 q 743 418 743 544 l 743 310 q 649 73 743 165 q 396 -20 554 -20 q 154 71 248 -20 q 61 300 61 161 m 245 283 q 288 171 245 214 q 400 127 330 127 q 517 172 475 127 q 558 288 558 216 l 558 392 q 517 517 558 471 q 403 564 475 564 q 286 518 326 564 q 245 389 245 472 l 245 283 z "},"ñ":{"ha":827,"x_min":93,"x_max":742,"o":"m 93 0 l 93 722 l 273 722 l 273 636 q 486 739 329 739 q 673 666 604 739 q 742 463 742 592 l 742 0 l 553 0 l 553 432 q 520 536 553 498 q 421 575 487 575 q 319 537 356 575 q 282 428 282 499 l 282 0 l 93 0 m 146 831 q 194 963 159 917 q 304 1010 230 1010 q 426 980 344 1010 q 525 950 507 950 q 554 960 542 950 q 570 979 566 970 q 581 1010 574 988 q 583 1015 583 1013 l 700 979 q 683 926 690 946 q 663 881 676 907 q 635 842 650 855 q 597 818 621 828 q 545 808 574 808 q 431 838 511 808 q 321 868 350 868 q 292 858 304 868 q 276 837 281 848 q 264 802 271 826 l 146 831 z "},"ò":{"ha":802,"x_min":61,"x_max":742,"o":"m 61 310 l 61 412 q 152 647 61 555 q 401 739 243 739 q 651 647 559 739 q 742 412 742 555 l 742 310 q 651 75 742 168 q 401 -17 559 -17 q 152 75 243 -17 q 61 310 61 168 m 160 1018 l 393 1018 l 494 804 l 304 804 l 160 1018 m 244 297 q 284 178 244 223 q 401 132 324 132 q 518 178 479 132 q 558 297 558 223 l 558 425 q 518 545 558 499 q 401 590 479 590 q 284 545 324 590 q 244 425 244 499 l 244 297 z "},"ó":{"ha":802,"x_min":61,"x_max":742,"o":"m 61 310 l 61 412 q 152 647 61 555 q 401 739 243 739 q 651 647 559 739 q 742 412 742 555 l 742 310 q 651 75 742 168 q 401 -17 559 -17 q 152 75 243 -17 q 61 310 61 168 m 244 297 q 284 178 244 223 q 401 132 324 132 q 518 178 479 132 q 558 297 558 223 l 558 425 q 518 545 558 499 q 401 590 479 590 q 284 545 324 590 q 244 425 244 499 l 244 297 m 309 804 l 410 1018 l 643 1018 l 496 804 l 309 804 z "},"ô":{"ha":802,"x_min":61,"x_max":742,"o":"m 61 310 l 61 412 q 152 647 61 555 q 401 739 243 739 q 651 647 559 739 q 742 412 742 555 l 742 310 q 651 75 742 168 q 401 -17 559 -17 q 152 75 243 -17 q 61 310 61 168 m 154 804 l 310 1018 l 493 1018 l 648 804 l 476 804 l 401 911 l 326 804 l 154 804 m 244 297 q 284 178 244 223 q 401 132 324 132 q 518 178 479 132 q 558 297 558 223 l 558 425 q 518 545 558 499 q 401 590 479 590 q 284 545 324 590 q 244 425 244 499 l 244 297 z "},"õ":{"ha":802,"x_min":61,"x_max":742,"o":"m 61 310 l 61 412 q 152 647 61 555 q 401 739 243 739 q 651 647 559 739 q 742 412 742 555 l 742 310 q 651 75 742 168 q 401 -17 559 -17 q 152 75 243 -17 q 61 310 61 168 m 132 831 q 180 964 145 918 q 290 1010 216 1010 q 412 980 330 1010 q 511 950 494 950 q 540 960 528 950 q 556 979 552 970 q 568 1010 560 988 q 570 1015 569 1013 l 686 979 q 670 926 677 946 q 649 881 663 906 q 621 842 636 856 q 583 818 606 828 q 530 808 560 808 q 417 838 497 808 q 307 868 336 868 q 279 858 290 868 q 262 837 267 848 q 250 802 258 826 l 132 831 m 244 297 q 284 178 244 223 q 401 132 324 132 q 518 178 479 132 q 558 297 558 223 l 558 425 q 518 545 558 499 q 401 590 479 590 q 284 545 324 590 q 244 425 244 499 l 244 297 z "},"ö":{"ha":802,"x_min":61,"x_max":742,"o":"m 61 310 l 61 412 q 152 647 61 555 q 401 739 243 739 q 651 647 559 739 q 742 412 742 555 l 742 310 q 651 75 742 168 q 401 -17 559 -17 q 152 75 243 -17 q 61 310 61 168 m 154 909 q 183 982 154 954 q 256 1011 212 1011 q 328 982 299 1011 q 357 909 357 954 q 328 837 357 865 q 256 808 300 808 q 183 837 212 808 q 154 909 154 866 m 244 297 q 284 178 244 223 q 401 132 324 132 q 518 178 479 132 q 558 297 558 223 l 558 425 q 518 545 558 499 q 401 590 479 590 q 284 545 324 590 q 244 425 244 499 l 244 297 m 446 909 q 474 982 446 954 q 547 1011 503 1011 q 620 982 591 1011 q 648 909 648 954 q 620 837 648 865 q 547 808 591 808 q 474 837 503 808 q 446 909 446 866 z "},"÷":{"ha":830,"x_min":97,"x_max":733,"o":"m 97 419 l 97 581 l 733 581 l 733 419 l 97 419 m 339 146 q 324 161 339 146 q 310 222 310 176 q 339 298 310 269 q 415 328 368 328 q 492 298 463 328 q 521 222 521 269 q 492 146 521 176 q 415 117 463 117 q 339 146 368 117 m 339 702 q 324 716 339 702 q 310 778 310 731 q 339 854 310 825 q 415 884 368 884 q 492 854 463 884 q 521 778 521 825 q 492 702 521 731 q 415 672 463 672 q 339 702 368 672 z "},"ø":{"ha":802,"x_min":61,"x_max":742,"o":"m 61 -69 l 155 71 q 61 310 61 161 l 61 412 q 152 647 61 555 q 401 739 243 739 q 576 700 500 739 l 639 791 l 742 791 l 647 650 q 718 544 693 606 q 742 412 742 483 l 742 310 q 651 75 742 168 q 401 -17 559 -17 q 225 22 302 -17 l 164 -69 l 61 -69 m 244 297 q 257 222 244 258 l 489 568 q 401 590 451 590 q 284 545 324 590 q 244 425 244 499 l 244 297 m 314 153 q 401 132 347 132 q 518 178 479 132 q 558 297 558 223 l 558 425 q 546 498 558 465 l 314 153 z "},"ù":{"ha":822,"x_min":86,"x_max":729,"o":"m 86 260 l 86 722 l 275 722 l 275 286 q 308 179 275 217 q 403 142 340 142 q 504 181 468 142 q 541 288 541 220 l 541 722 l 729 722 l 729 0 l 549 0 l 549 86 q 466 12 524 40 q 339 -17 408 -17 q 153 59 219 -17 q 86 260 86 134 m 195 1018 l 428 1018 l 529 804 l 339 804 l 195 1018 z "},"ú":{"ha":822,"x_min":86,"x_max":729,"o":"m 86 260 l 86 722 l 275 722 l 275 286 q 308 179 275 217 q 403 142 340 142 q 504 181 468 142 q 541 288 541 220 l 541 722 l 729 722 l 729 0 l 549 0 l 549 86 q 466 12 524 40 q 339 -17 408 -17 q 153 59 219 -17 q 86 260 86 134 m 301 804 l 403 1018 l 636 1018 l 489 804 l 301 804 z "},"û":{"ha":822,"x_min":86,"x_max":729,"o":"m 86 260 l 86 722 l 275 722 l 275 286 q 308 179 275 217 q 403 142 340 142 q 504 181 468 142 q 541 288 541 220 l 541 722 l 729 722 l 729 0 l 549 0 l 549 86 q 466 12 524 40 q 339 -17 408 -17 q 153 59 219 -17 q 86 260 86 134 m 172 804 l 328 1018 l 511 1018 l 667 804 l 494 804 l 419 911 l 345 804 l 172 804 z "},"ü":{"ha":822,"x_min":86,"x_max":729,"o":"m 86 260 l 86 722 l 275 722 l 275 286 q 308 179 275 217 q 403 142 340 142 q 504 181 468 142 q 541 288 541 220 l 541 722 l 729 722 l 729 0 l 549 0 l 549 86 q 466 12 524 40 q 339 -17 408 -17 q 153 59 219 -17 q 86 260 86 134 m 175 909 q 204 982 175 954 q 277 1011 233 1011 q 349 982 320 1011 q 378 909 378 954 q 349 837 378 865 q 277 808 320 808 q 204 837 233 808 q 175 909 175 866 m 467 909 q 496 982 467 954 q 568 1011 525 1011 q 641 982 612 1011 q 669 909 669 954 q 641 837 669 865 q 568 808 612 808 q 495 837 524 808 q 467 909 467 866 z "},"ý":{"ha":709,"x_min":16,"x_max":694,"o":"m 16 722 l 204 722 l 359 204 l 507 722 l 694 722 l 379 -241 l 193 -241 l 265 3 l 16 722 m 265 804 l 367 1018 l 600 1018 l 453 804 l 265 804 z "},"þ":{"ha":852,"x_min":93,"x_max":791,"o":"m 93 -241 l 93 1014 l 282 1014 l 282 647 q 365 713 312 688 q 488 739 418 739 q 618 714 560 739 q 714 644 677 688 q 771 543 751 600 q 791 421 791 486 l 791 301 q 757 142 791 213 q 653 27 723 71 q 489 -17 583 -17 q 365 9 419 -17 q 282 78 311 35 l 282 -241 l 93 -241 m 282 307 q 328 182 282 228 q 440 136 373 136 q 561 184 518 136 q 603 310 603 231 l 603 412 q 562 537 603 488 q 441 586 520 586 q 326 537 370 586 q 282 412 282 489 l 282 307 z "},"ÿ":{"ha":709,"x_min":16,"x_max":694,"o":"m 16 722 l 204 722 l 359 204 l 507 722 l 694 722 l 379 -241 l 193 -241 l 265 3 l 16 722 m 119 909 q 149 982 119 954 q 221 1011 178 1011 q 293 982 264 1011 q 322 909 322 954 q 293 837 322 865 q 221 808 264 808 q 148 837 177 808 q 119 909 119 866 m 411 909 q 440 982 411 954 q 513 1011 469 1011 q 585 982 556 1011 q 614 909 614 954 q 585 837 614 865 q 513 808 556 808 q 440 837 469 808 q 411 909 411 866 z "},"Œ":{"ha":1478,"x_min":78,"x_max":1409,"o":"m 78 440 l 78 532 q 194 854 78 736 q 529 972 309 972 l 1407 972 l 1407 811 l 921 811 l 921 574 l 1365 574 l 1365 411 l 921 411 l 921 161 l 1409 161 l 1409 0 l 529 0 q 194 118 309 0 q 78 440 78 236 m 271 432 q 335 233 271 305 q 530 161 400 161 l 726 161 l 726 811 l 530 811 q 335 739 400 811 q 271 541 271 667 l 271 432 z "},"œ":{"ha":1286,"x_min":61,"x_max":1214,"o":"m 61 310 l 61 412 q 152 647 61 555 q 401 739 243 739 q 536 715 478 739 q 647 644 595 692 q 892 739 735 739 q 1069 696 995 739 q 1179 582 1143 652 q 1214 422 1214 511 l 1214 296 l 742 296 l 742 278 q 780 164 742 209 q 895 119 817 119 q 990 145 952 119 q 1043 211 1028 171 l 1208 211 q 1102 47 1190 111 q 895 -17 1014 -17 q 750 8 817 -17 q 646 77 684 33 q 543 10 609 37 q 401 -17 477 -17 q 216 27 294 -17 q 99 143 138 71 q 61 310 61 216 m 244 297 q 284 178 244 223 q 401 132 324 132 q 518 178 479 132 q 558 297 558 223 l 558 425 q 518 545 558 499 q 401 590 479 590 q 284 545 324 590 q 244 425 244 499 l 244 297 m 742 429 l 1040 429 l 1040 447 q 1003 562 1040 518 q 892 606 965 606 q 778 560 814 606 q 742 436 742 514 l 742 429 z "},"Ÿ":{"ha":883,"x_min":11,"x_max":872,"o":"m 11 972 l 222 972 l 441 539 l 661 972 l 872 972 l 539 350 l 539 0 l 345 0 l 345 350 l 11 972 m 214 1075 q 199 1089 214 1075 q 184 1147 184 1104 q 213 1220 184 1191 q 286 1249 242 1249 q 358 1220 330 1249 q 387 1147 387 1191 q 358 1075 387 1103 q 286 1046 330 1046 q 214 1075 243 1046 m 525 1075 q 510 1089 525 1075 q 496 1147 496 1104 q 525 1220 496 1191 q 597 1249 553 1249 q 670 1220 642 1249 q 699 1147 699 1191 q 670 1075 699 1103 q 597 1046 641 1046 q 525 1075 553 1046 z "},"ˆ":{"ha":708,"x_min":107,"x_max":602,"o":"m 107 804 l 262 1018 l 446 1018 l 602 804 l 429 804 l 354 911 l 279 804 l 107 804 z "},"˜":{"ha":768,"x_min":107,"x_max":661,"o":"m 107 831 q 155 964 120 918 q 265 1010 191 1010 q 387 980 304 1010 q 486 950 469 950 q 515 960 503 950 q 531 979 527 970 q 543 1010 535 988 q 545 1015 544 1013 l 661 979 q 645 926 652 946 q 624 881 637 906 q 596 842 611 856 q 558 818 581 828 q 505 808 535 808 q 392 838 472 808 q 282 868 311 868 q 254 858 265 868 q 237 837 242 848 q 225 802 233 826 l 107 831 z "}," ":{"ha":627,"x_min":0,"x_max":0,"o":""}," ":{"ha":1255,"x_min":0,"x_max":0,"o":""}," ":{"ha":627,"x_min":0,"x_max":0,"o":""}," ":{"ha":1255,"x_min":0,"x_max":0,"o":""}," ":{"ha":418,"x_min":0,"x_max":0,"o":""}," ":{"ha":313,"x_min":0,"x_max":0,"o":""}," ":{"ha":209,"x_min":0,"x_max":0,"o":""}," ":{"ha":209,"x_min":0,"x_max":0,"o":""}," ":{"ha":157,"x_min":0,"x_max":0,"o":""}," ":{"ha":251,"x_min":0,"x_max":0,"o":""}," ":{"ha":69,"x_min":0,"x_max":0,"o":""},"‐":{"ha":568,"x_min":77,"x_max":492,"o":"m 77 359 l 77 529 l 492 529 l 492 359 l 77 359 z "},"‑":{"ha":568,"x_min":77,"x_max":492,"o":"m 77 359 l 77 529 l 492 529 l 492 359 l 77 359 z "},"‒":{"ha":568,"x_min":77,"x_max":492,"o":"m 77 359 l 77 529 l 492 529 l 492 359 l 77 359 z "},"–":{"ha":852,"x_min":77,"x_max":777,"o":"m 77 359 l 77 529 l 777 529 l 777 359 l 77 359 z "},"—":{"ha":1267,"x_min":77,"x_max":1192,"o":"m 77 359 l 77 529 l 1192 529 l 1192 359 l 77 359 z "},"‘":{"ha":329,"x_min":14,"x_max":293,"o":"m 14 604 l 139 972 l 293 972 l 222 604 l 14 604 z "},"’":{"ha":329,"x_min":36,"x_max":315,"o":"m 36 604 l 107 972 l 315 972 l 191 604 l 36 604 z "},"‚":{"ha":355,"x_min":21,"x_max":300,"o":"m 21 -179 l 92 189 l 300 189 l 175 -179 l 21 -179 z "},"“":{"ha":648,"x_min":14,"x_max":612,"o":"m 14 604 l 139 972 l 293 972 l 222 604 l 14 604 m 334 604 l 458 972 l 612 972 l 542 604 l 334 604 z "},"”":{"ha":648,"x_min":36,"x_max":635,"o":"m 36 604 l 107 972 l 315 972 l 191 604 l 36 604 m 355 604 l 427 972 l 635 972 l 510 604 l 355 604 z "},"„":{"ha":675,"x_min":21,"x_max":619,"o":"m 21 -179 l 92 189 l 300 189 l 175 -179 l 21 -179 m 340 -179 l 411 189 l 619 189 l 494 -179 l 340 -179 z "},"•":{"ha":574,"x_min":97,"x_max":478,"o":"m 97 494 q 149 628 97 575 q 288 681 201 681 q 426 628 374 681 q 478 494 478 576 q 426 361 478 414 q 288 309 374 309 q 149 361 201 309 q 97 494 97 414 z "},"…":{"ha":1066,"x_min":69,"x_max":997,"o":"m 99 19 q 84 34 99 19 q 69 97 69 49 q 99 175 69 145 q 178 205 129 205 q 256 175 227 205 q 286 97 286 145 q 256 19 286 49 q 178 -11 227 -11 q 99 19 129 -11 m 455 19 q 440 34 455 19 q 425 97 425 49 q 455 175 425 145 q 533 205 484 205 q 612 175 582 205 q 642 97 642 145 q 612 19 642 49 q 533 -11 582 -11 q 455 19 484 -11 m 810 19 q 795 34 810 19 q 781 97 781 49 q 810 175 781 145 q 889 205 840 205 q 967 175 938 205 q 997 97 997 145 q 967 19 997 49 q 889 -11 938 -11 q 810 19 840 -11 z "}," ":{"ha":251,"x_min":0,"x_max":0,"o":""},"‹":{"ha":494,"x_min":14,"x_max":453,"o":"m 14 383 l 240 684 l 453 684 l 228 383 l 453 83 l 240 83 l 14 383 z "},"›":{"ha":494,"x_min":41,"x_max":481,"o":"m 41 83 l 267 383 l 41 684 l 254 684 l 481 383 l 254 83 l 41 83 z "}," ":{"ha":313,"x_min":0,"x_max":0,"o":""},"€":{"ha":932,"x_min":62,"x_max":863,"o":"m 62 304 l 62 433 l 164 433 l 164 539 l 62 539 l 62 668 l 164 668 q 190 794 165 736 q 258 897 214 852 q 369 966 302 941 q 518 991 436 991 q 659 966 595 991 q 767 898 724 941 q 836 798 810 855 q 863 676 861 741 l 692 676 q 643 794 688 749 q 521 840 598 840 q 395 794 438 840 q 351 672 351 749 l 351 668 l 559 668 l 559 539 l 351 539 l 351 433 l 559 433 l 559 304 l 351 304 l 351 300 q 395 178 351 223 q 521 132 438 132 q 643 178 598 132 q 692 296 688 223 l 863 296 q 836 174 861 231 q 767 74 810 117 q 659 5 724 31 q 518 -20 595 -20 q 369 6 436 -20 q 258 75 302 31 q 190 178 214 119 q 164 304 165 237 l 62 304 z "},"™":{"ha":908,"x_min":41,"x_max":836,"o":"m 41 897 l 41 972 l 372 972 l 372 897 l 250 897 l 250 561 l 164 561 l 164 897 l 41 897 m 441 561 l 441 972 l 521 972 l 639 730 l 757 972 l 836 972 l 836 561 l 753 561 l 753 803 l 681 656 l 597 656 l 525 803 l 525 561 l 441 561 z "},"":{"ha":722,"x_min":0,"x_max":722,"o":"m 0 0 l 0 722 l 722 722 l 722 0 l 0 0 z "},"ﬁ":{"ha":887,"x_min":43,"x_max":806,"o":"m 43 570 l 43 722 l 135 722 l 135 789 q 190 960 135 906 q 358 1014 245 1014 l 484 1014 l 484 864 l 401 864 q 341 848 359 864 q 323 790 323 831 l 323 722 l 469 722 l 469 570 l 323 570 l 323 0 l 135 0 l 135 570 l 43 570 m 617 833 q 602 848 617 833 q 586 911 586 864 q 617 989 586 958 q 696 1021 648 1021 q 774 989 743 1021 q 806 911 806 958 q 774 833 806 864 q 696 802 743 802 q 617 833 648 802 m 602 0 l 602 722 l 790 722 l 790 0 l 602 0 z "},"ﬂ":{"ha":887,"x_min":43,"x_max":790,"o":"m 43 570 l 43 722 l 135 722 l 135 789 q 190 960 135 906 q 358 1014 245 1014 l 484 1014 l 484 864 l 401 864 q 341 848 359 864 q 323 790 323 831 l 323 722 l 469 722 l 469 570 l 323 570 l 323 0 l 135 0 l 135 570 l 43 570 m 602 0 l 602 1014 l 790 1014 l 790 0 l 602 0 z "}}}
